<svg xmlns="http://www.w3.org/2000/svg" width="1254" height="1254" viewBox="0 0 1254 1254" role="img" aria-label="Setara polygon logo">
  <defs>
    <linearGradient id="setaraGradient" x1="228" y1="967" x2="980" y2="278" gradientUnits="userSpaceOnUse">
      <stop offset="0" stop-color="#00A6CF"/>
      <stop offset="0.5" stop-color="#2FE3C5"/>
      <stop offset="1" stop-color="#98F0C9"/>
    </linearGradient>
  </defs>

  <!-- component 1: outer ring -->
  <polygon
    id="outer-ring"
    points="627,181 967,392 967,862 627,1073 287,862 287,392"
    fill="none"
    stroke="url(#setaraGradient)"
    stroke-width="72"
    stroke-linejoin="round"
    stroke-linecap="round"/>

  <!-- component 2: upper wavy line -->
  <polygon
    id="wave-upper"
    points="379,570 479,570 532,543 579,518 608,507 633,505 662,514 710,541 760,568 875,568 842,628 756,628 699,600 657,580 630,576 604,581 556,604 504,629 415,629"
    fill="url(#setaraGradient)"/>

  <!-- component 3: lower wavy line -->
  <polygon
    id="wave-lower"
    points="379,720 480,720 532,693 580,668 608,657 633,655 662,664 710,691 760,718 875,718 842,778 756,778 699,750 657,730 630,726 604,731 556,754 504,779 415,779"
    fill="url(#setaraGradient)"/>
</svg>
