<svg viewBox="-13.25 -2 355.825 88.825" xmlns="http://www.w3.org/2000/svg">
  <g id="svgGroup" stroke-linecap="round" fill-rule="nonzero" fill="currentColor" stroke="none">
      <path d="M41.550 42.075L18.450 42.075Q17.100 42.075 16.688 41.625Q16.275 41.175 16.275 39.675L16.275 39.675L16.275 34.650Q16.275 33.150 16.688 32.700Q17.100 32.250 18.450 32.250L18.450 32.250L53.175 32.175Q53.925 32.175 54.487 31.725Q55.050 31.275 55.050 30.675L55.050 30.675L55.050 27.300Q55.050 26.700 54.487 26.250Q53.925 25.800 53.175 25.800L53.175 25.800L18 25.800Q14.325 25.800 11.775 26.325Q9.225 26.850 7.650 28.088Q6.075 29.325 5.362 31.350Q4.650 33.375 4.650 36.450L4.650 36.450L4.650 40.575Q4.650 43.650 5.362 45.675Q6.075 47.700 7.650 48.938Q9.225 50.175 11.775 50.700Q14.325 51.225 18 51.225L18 51.225L41.775 51.225Q43.125 51.225 43.538 51.675Q43.950 52.125 43.950 53.625L43.950 53.625L43.950 58.875Q43.950 60.375 43.538 60.825Q43.125 61.275 41.775 61.275L41.775 61.275L-9.375 61.275Q-10.200 61.275-10.725 61.725Q-11.250 62.175-11.250 62.775L-11.250 62.775L-11.250 66.225Q-11.250 66.825-10.725 67.275Q-10.200 67.725-9.375 67.725L-9.375 67.725L42.375 67.725Q49.350 67.725 52.087 65.813Q54.825 63.900 54.825 60.225L54.825 60.225L54.825 52.725Q54.825 49.650 54.150 47.625Q53.475 45.600 51.900 44.363Q50.325 43.125 47.775 42.600Q45.225 42.075 41.550 42.075L41.550 42.075ZM83.850 47.925L115.650 47.925Q116.475 47.925 117 47.475Q117.525 47.025 117.525 46.425L117.525 46.425L117.525 36.525Q117.525 33.450 116.850 31.425Q116.175 29.400 114.600 28.163Q113.025 26.925 110.475 26.400Q107.925 25.875 104.250 25.875L104.250 25.875L77.700 25.875Q74.025 25.875 71.475 26.400Q68.925 26.925 67.350 28.163Q65.775 29.400 65.063 31.425Q64.350 33.450 64.350 36.525L64.350 36.525L64.350 57.075Q64.350 60.150 65.063 62.175Q65.775 64.200 67.350 65.438Q68.925 66.675 71.475 67.200Q74.025 67.725 77.700 67.725L77.700 67.725L135.375 67.725Q136.125 67.725 136.688 67.275Q137.250 66.825 137.250 66.225L137.250 66.225L137.325 62.775Q137.325 62.175 136.800 61.725Q136.275 61.275 135.450 61.275L135.450 61.275L78.150 61.275Q76.800 61.275 76.387 60.825Q75.975 60.375 75.975 58.875L75.975 58.875L75.975 34.725Q75.975 33.225 76.387 32.775Q76.800 32.325 78.150 32.325L78.150 32.325L103.725 32.325Q105.075 32.325 105.487 32.775Q105.900 33.225 105.900 34.725L105.900 34.725L105.900 41.475L83.850 41.475Q83.100 41.475 82.537 41.925Q81.975 42.375 81.975 42.975L81.975 42.975L81.975 46.425Q81.975 47.025 82.537 47.475Q83.100 47.925 83.850 47.925L83.850 47.925ZM160.650 30.825L160.650 30.825L160.650 27.375Q160.650 26.775 160.125 26.325Q159.600 25.875 158.775 25.875L158.775 25.875L143.700 25.875L143.700 4.875Q143.700 4.275 143.175 3.825Q142.650 3.375 141.825 3.375L141.825 3.375L133.950 3.375Q133.125 3.375 132.600 3.825Q132.075 4.275 132.075 4.875L132.075 4.875L132.075 25.875L126.825 25.875Q126 25.875 125.475 26.325Q124.950 26.775 124.950 27.375L124.950 27.375L124.950 30.825Q124.950 31.425 125.475 31.875Q126 32.325 126.825 32.325L126.825 32.325L132.075 32.325L132.075 56.925Q132.075 60.975 132.750 63.188Q133.425 65.400 135 66.413Q136.575 67.425 139.125 67.613Q141.675 67.800 145.425 67.800L145.425 67.800L177 67.800Q177.825 67.800 178.350 67.238Q178.875 66.675 178.875 66.075L178.875 66.075L178.875 62.625Q178.875 62.025 178.350 61.575Q177.825 61.125 177 61.125L177 61.125L145.875 61.125Q144.525 61.125 144.113 60.675Q143.700 60.225 143.700 58.725L143.700 58.725L143.700 32.325L158.775 32.325Q159.600 32.325 160.125 31.875Q160.650 31.425 160.650 30.825ZM208.200 47.925L208.200 53.025Q208.200 53.625 208.763 54.075Q209.325 54.525 210.075 54.525L210.075 54.525L217.950 54.525Q218.775 54.525 219.300 54.075Q219.825 53.625 219.825 53.025L219.825 53.025L219.825 36.525Q219.825 33.450 219.150 31.425Q218.475 29.400 216.900 28.163Q215.325 26.925 212.775 26.400Q210.225 25.875 206.550 25.875L206.550 25.875L171.075 25.875Q170.325 25.875 169.763 26.288Q169.200 26.700 169.200 27.300L169.200 27.300L169.200 30.750Q169.200 31.425 169.725 31.875Q170.250 32.325 171.075 32.325L171.075 32.325L206.100 32.325Q207.375 32.325 207.788 32.775Q208.200 33.225 208.200 34.575L208.200 34.575L208.200 39.075Q208.200 40.575 207.788 41.025Q207.375 41.475 206.100 41.475L206.100 41.475L181.050 41.475Q177.375 41.475 174.825 42.000Q172.275 42.525 170.700 43.763Q169.125 45.000 168.413 47.025Q167.700 49.050 167.700 52.125L167.700 52.125L167.700 57.075Q167.700 60.150 168.413 62.175Q169.125 64.200 170.700 65.438Q172.275 66.675 174.825 67.200Q177.375 67.725 181.050 67.725L181.050 67.725L235.875 67.725Q236.700 67.725 237.225 67.275Q237.750 66.825 237.750 66.225L237.750 66.225L237.750 62.775Q237.750 62.175 237.225 61.725Q236.700 61.275 235.875 61.275L235.875 61.275L181.500 61.275Q180.150 61.275 179.738 60.825Q179.325 60.375 179.325 58.875L179.325 58.875L179.325 50.325Q179.325 48.825 179.738 48.375Q180.150 47.925 181.500 47.925L181.500 47.925L208.200 47.925ZM241.200 65.925L241.200 34.875Q241.200 34.050 241.763 33.188Q242.325 32.325 243.375 32.325L243.375 32.325L259.500 32.325Q260.550 32.325 261.075 31.763Q261.600 31.200 261.300 30.375L261.300 30.375L261.375 27.000Q261.225 26.625 260.700 26.288Q260.175 25.950 259.575 25.950L259.575 25.950L235.725 25.950Q234 25.950 232.838 26.588Q231.675 27.225 230.963 28.200Q230.250 29.175 229.913 30.375Q229.575 31.575 229.575 32.775L229.575 32.775L229.575 65.925Q229.575 66.525 230.138 67.125Q230.700 67.725 231.450 67.725L231.450 67.725L239.475 67.725Q240.225 67.725 240.713 67.125Q241.200 66.525 241.200 65.925L241.200 65.925ZM311.025 47.925L311.025 53.025Q311.025 53.625 311.587 54.075Q312.150 54.525 312.900 54.525L312.900 54.525L320.775 54.525Q321.600 54.525 322.125 54.075Q322.650 53.625 322.650 53.025L322.650 53.025L322.650 36.525Q322.650 33.450 321.975 31.425Q321.300 29.400 319.725 28.163Q318.150 26.925 315.600 26.400Q313.050 25.875 309.375 25.875L309.375 25.875L273.900 25.875Q273.150 25.875 272.587 26.288Q272.025 26.700 272.025 27.300L272.025 27.300L272.025 30.750Q272.025 31.425 272.550 31.875Q273.075 32.325 273.900 32.325L273.900 32.325L308.925 32.325Q310.200 32.325 310.613 32.775Q311.025 33.225 311.025 34.575L311.025 34.575L311.025 39.075Q311.025 40.575 310.613 41.025Q310.200 41.475 308.925 41.475L308.925 41.475L283.875 41.475Q280.200 41.475 277.650 42.000Q275.100 42.525 273.525 43.763Q271.950 45.000 271.238 47.025Q270.525 49.050 270.525 52.125L270.525 52.125L270.525 57.075Q270.525 60.150 271.238 62.175Q271.950 64.200 273.525 65.438Q275.100 66.675 277.650 67.200Q280.200 67.725 283.875 67.725L283.875 67.725L338.700 67.725Q339.525 67.725 340.050 67.275Q340.575 66.825 340.575 66.225L340.575 66.225L340.575 62.775Q340.575 62.175 340.050 61.725Q339.525 61.275 338.700 61.275L338.700 61.275L284.325 61.275Q282.975 61.275 282.563 60.825Q282.150 60.375 282.150 58.875L282.150 58.875L282.150 50.325Q282.150 48.825 282.563 48.375Q282.975 47.925 284.325 47.925L284.325 47.925L311.025 47.925Z" />
  </g>
</svg>