<?xml version="1.0" encoding="UTF-8"?>
<svg version="1.1" xmlns="http://www.w3.org/2000/svg" width="313" height="313">
<path d="M0 0 C1.20205078 0.00966797 2.40410156 0.01933594 3.64257812 0.02929688 C5.51139648 0.06700195 5.51139648 0.06700195 7.41796875 0.10546875 C9.31579102 0.12577148 9.31579102 0.12577148 11.25195312 0.14648438 C14.37022518 0.18178557 17.48762917 0.23110056 20.60546875 0.29296875 C20.05823192 3.6675959 19.55056875 5.37531875 17.60546875 8.29296875 C15.45068359 8.7253418 15.45068359 8.7253418 12.81640625 8.8046875 C11.87539062 8.84013672 10.934375 8.87558594 9.96484375 8.91210938 C8.98 8.93466797 7.99515625 8.95722656 6.98046875 8.98046875 C5.49160156 9.03170898 5.49160156 9.03170898 3.97265625 9.08398438 C1.51703969 9.16662532 -0.93821266 9.23572002 -3.39453125 9.29296875 C-3.39453125 10.28296875 -3.39453125 11.27296875 -3.39453125 12.29296875 C-1.53248047 12.34904297 -1.53248047 12.34904297 0.3671875 12.40625 C2.00914386 12.47192825 3.65106962 12.53837495 5.29296875 12.60546875 C6.10958984 12.62802734 6.92621094 12.65058594 7.76757812 12.67382812 C12.49535386 12.88437684 15.74522153 13.27715061 19.60546875 16.29296875 C22.33459519 19.80184561 22.01696611 24.04666622 21.60546875 28.29296875 C20.7284033 31.24309799 19.91886042 32.06505072 17.4230957 33.88012695 C14.08952314 35.5516792 11.92416937 35.63873227 8.2109375 35.5859375 C7.00888672 35.57626953 5.80683594 35.56660156 4.56835938 35.55664062 C3.32248047 35.53150391 2.07660156 35.50636719 0.79296875 35.48046875 C-1.10485352 35.46016602 -1.10485352 35.46016602 -3.04101562 35.43945312 C-6.15928768 35.40415193 -9.27669167 35.35483694 -12.39453125 35.29296875 C-13.39453125 32.29296875 -13.39453125 32.29296875 -12.39453125 29.66796875 C-9.61873081 26.37170573 -7.6285692 26.7159453 -3.39453125 26.29296875 C-0.75046855 26.08196473 1.89557475 25.89446661 4.54296875 25.73046875 C5.22681641 25.68728516 5.91066406 25.64410156 6.61523438 25.59960938 C8.2784924 25.4949288 9.94196038 25.39359281 11.60546875 25.29296875 C11.60546875 24.63296875 11.60546875 23.97296875 11.60546875 23.29296875 C10.32671875 23.14859375 9.04796875 23.00421875 7.73046875 22.85546875 C6.91191406 22.75878906 6.09335937 22.66210938 5.25 22.5625 C3.50181304 22.38432437 1.74778218 22.25578951 -0.0078125 22.1796875 C-4.22843316 21.95552707 -7.50524811 21.69017718 -10.95703125 19.10546875 C-13.7402251 15.89409123 -14.47911317 14.52206464 -14.39453125 10.29296875 C-13.22948719 6.47421323 -12.38853407 4.04993423 -9.17700195 1.60424805 C-5.8788152 0.04993015 -3.63481978 -0.0516799 0 0 Z " fill="#3C5557" transform="translate(55.39453125,145.70703125)"/>
<path d="M0 0 C10.56 0 21.12 0 32 0 C31 6 31 6 30 8 C19.605 8.495 19.605 8.495 9 9 C9 10.32 9 11.64 9 13 C15.27 13 21.54 13 28 13 C29 15 29 15 28.07421875 18.0703125 C26 21 26 21 22.20703125 21.8046875 C20.74295894 21.85768559 19.2775223 21.88011798 17.8125 21.875 C17.06291016 21.895625 16.31332031 21.91625 15.54101562 21.9375 C13.69449213 21.98454518 11.84711781 21.99574887 10 22 C9.67 23.65 9.34 25.3 9 27 C9.63292969 26.83628906 10.26585938 26.67257813 10.91796875 26.50390625 C15.06751093 25.82546399 19.11641498 25.89444625 23.3125 25.9375 C24.14845703 25.94201172 24.98441406 25.94652344 25.84570312 25.95117188 C27.89716649 25.96289452 29.94859273 25.98082797 32 26 C31.125 32.75 31.125 32.75 30 35 C20.1 35 10.2 35 0 35 C0 23.45 0 11.9 0 0 Z " fill="#425859" transform="translate(84,146)"/>
<path d="M0 0 C1.23298828 -0.020625 2.46597656 -0.04125 3.73632812 -0.0625 C4.93064453 -0.06765625 6.12496094 -0.0728125 7.35546875 -0.078125 C8.44883545 -0.0874707 9.54220215 -0.09681641 10.66870117 -0.10644531 C14.30150697 0.30544383 16.69334488 1.37061465 19.8125 3.25 C22.29422096 7.19819243 22.42043724 11.70889301 21.8125 16.25 C20.27145008 19.55224983 18.38854942 21.73167718 15.8125 24.25 C16.3178125 24.87648437 16.823125 25.50296875 17.34375 26.1484375 C17.9934375 26.96570313 18.643125 27.78296875 19.3125 28.625 C19.9621875 29.43710938 20.611875 30.24921875 21.28125 31.0859375 C22.8125 33.25 22.8125 33.25 22.8125 35.25 C18.97965985 35.88410958 15.62213938 36.10275372 11.8125 35.25 C9.39011283 32.87003642 7.64737973 30.34535141 5.73828125 27.54296875 C3.57095216 24.96239639 2.6050592 24.4767445 -0.6875 24.125 C-1.8425 24.16625 -2.9975 24.2075 -4.1875 24.25 C-4.1875 27.88 -4.1875 31.51 -4.1875 35.25 C-7.1575 35.25 -10.1275 35.25 -13.1875 35.25 C-13.1875 28.98 -13.1875 22.71 -13.1875 16.25 C-5.2675 15.92 2.6525 15.59 10.8125 15.25 C11.1425 13.6 11.4725 11.95 11.8125 10.25 C10.81458672 9.02786969 10.81458672 9.02786969 8.8347168 9.15576172 C7.98562744 9.16365723 7.13653809 9.17155273 6.26171875 9.1796875 C5.33552734 9.169375 4.40933594 9.1590625 3.45507812 9.1484375 C1.4967908 9.13290581 -0.46182526 9.14044067 -2.41992188 9.171875 C-9.42893167 9.03587204 -9.42893167 9.03587204 -11.74755859 6.63378906 C-12.85546875 4.6953125 -12.85546875 4.6953125 -14.1875 1.25 C-11.50133149 -1.43616851 -3.61350276 0.01487804 0 0 Z " fill="#435A5B" transform="translate(211.1875,145.75)"/>
<path d="M0 0 C2.97 0 5.94 0 9 0 C11.14359979 4.49889906 13.27962678 9.00128413 15.40869141 13.50708008 C16.13415406 15.03964022 16.86168256 16.57122423 17.59130859 18.10180664 C18.63923055 20.301017 19.67969205 22.5036218 20.71875 24.70703125 C21.04685669 25.39150833 21.37496338 26.07598541 21.7130127 26.78120422 C23.08462345 29.70627225 24 31.72772367 24 35 C20.7 35 17.4 35 14 35 C10.94712693 29.06385791 8.17170591 23.17239135 5.796875 16.93359375 C5.15665935 15.02854801 5.15665935 15.02854801 4 14 C1.03 20.93 -1.94 27.86 -5 35 C-7.97 35 -10.94 35 -14 35 C-14.33 34.34 -14.66 33.68 -15 33 C-14.19603548 30.83249818 -13.28265719 28.70532552 -12.32421875 26.6015625 C-12.03899857 25.97019379 -11.75377838 25.33882507 -11.45991516 24.68832397 C-10.54310458 22.663795 -9.6153749 20.64447831 -8.6875 18.625 C-8.07286477 17.27115224 -7.45892381 15.91698906 -6.84570312 14.5625 C-4.62714566 9.67491426 -2.40077595 4.8015519 0 0 Z " fill="#405759" transform="translate(253,146)"/>
<path d="M0 0 C2.01822917 0.06510417 4.03645833 0.13020833 6.0546875 0.1953125 C9.90100407 7.61644094 13.46801926 15.15104478 16.9296875 22.7578125 C17.33501709 23.63856445 17.74034668 24.51931641 18.15795898 25.42675781 C18.53380127 26.25916992 18.90964355 27.09158203 19.296875 27.94921875 C19.6357373 28.69502197 19.97459961 29.4408252 20.32373047 30.20922852 C21.0546875 32.1953125 21.0546875 32.1953125 21.0546875 35.1953125 C17.7546875 35.1953125 14.4546875 35.1953125 11.0546875 35.1953125 C8.0846875 28.5953125 5.1146875 21.9953125 2.0546875 15.1953125 C0.02278821 17.22721179 -0.59564218 18.45529369 -1.63671875 21.07421875 C-1.94158203 21.83025391 -2.24644531 22.58628906 -2.56054688 23.36523438 C-3.02944336 24.54956055 -3.02944336 24.54956055 -3.5078125 25.7578125 C-4.1319068 27.32249699 -4.75809979 28.88634657 -5.38671875 30.44921875 C-5.66201416 31.14345947 -5.93730957 31.8377002 -6.22094727 32.55297852 C-6.9453125 34.1953125 -6.9453125 34.1953125 -7.9453125 35.1953125 C-9.63140216 35.26736761 -11.32031909 35.27917318 -13.0078125 35.2578125 C-13.92691406 35.24878906 -14.84601563 35.23976562 -15.79296875 35.23046875 C-16.50324219 35.21886719 -17.21351563 35.20726562 -17.9453125 35.1953125 C-15.98234108 29.03556373 -13.40452039 23.21714728 -10.77734375 17.31689453 C-9.94245621 15.43888752 -9.11558176 13.55748358 -8.2890625 11.67578125 C-7.763125 10.49113281 -7.2371875 9.30648437 -6.6953125 8.0859375 C-6.21578125 7.00344727 -5.73625 5.92095703 -5.2421875 4.80566406 C-3.00450662 0.30165729 -3.00450662 0.30165729 0 0 Z " fill="#445A5B" transform="translate(170.9453125,145.8046875)"/>
<path d="M0 0 C11.55 0 23.1 0 35 0 C34 6 34 6 33 8 C29.7 8.33 26.4 8.66 23 9 C22.67 17.58 22.34 26.16 22 35 C19.03 35 16.06 35 13 35 C12.67 26.42 12.34 17.84 12 9 C8.7 8.67 5.4 8.34 2 8 C0.74335022 5.09399739 0 3.20395416 0 0 Z " fill="#4C6162" transform="translate(121,146)"/>
<path d="M0 0 C1.20205078 0.00966797 2.40410156 0.01933594 3.64257812 0.02929688 C5.51139648 0.06700195 5.51139648 0.06700195 7.41796875 0.10546875 C9.31579102 0.12577148 9.31579102 0.12577148 11.25195312 0.14648438 C14.37022518 0.18178557 17.48762917 0.23110056 20.60546875 0.29296875 C20.05823192 3.6675959 19.55056875 5.37531875 17.60546875 8.29296875 C15.45068359 8.7253418 15.45068359 8.7253418 12.81640625 8.8046875 C11.87539062 8.84013672 10.934375 8.87558594 9.96484375 8.91210938 C8.98 8.93466797 7.99515625 8.95722656 6.98046875 8.98046875 C5.49160156 9.03170898 5.49160156 9.03170898 3.97265625 9.08398438 C1.51703969 9.16662532 -0.93821266 9.23572002 -3.39453125 9.29296875 C-3.72453125 11.27296875 -4.05453125 13.25296875 -4.39453125 15.29296875 C-3.40453125 15.29296875 -2.41453125 15.29296875 -1.39453125 15.29296875 C-1.39453125 16.61296875 -1.39453125 17.93296875 -1.39453125 19.29296875 C-6.14627105 18.8609924 -8.31453179 17.9652758 -11.39453125 14.29296875 C-12.05453125 14.95296875 -12.71453125 15.61296875 -13.39453125 16.29296875 C-14.80790054 11.02495595 -14.0714845 8.02225283 -11.39453125 3.29296875 C-7.55838312 0.37161714 -4.76505201 -0.06774955 0 0 Z " fill="#516666" transform="translate(55.39453125,145.70703125)"/>
<path d="M0 0 C2.15634036 2.15634036 3.47793991 4.37098712 5 7 C6.65 6.01 8.3 5.02 10 4 C11.17407021 6.26727333 12.33939739 8.53834624 13.5 10.8125 C13.83386719 11.45509766 14.16773438 12.09769531 14.51171875 12.75976562 C16.00239084 15.69547699 17 17.66126517 17 21 C13.7 21 10.4 21 7 21 C5.82181449 18.44225544 4.65734345 15.87965758 3.5 13.3125 C3.16613281 12.59126953 2.83226562 11.87003906 2.48828125 11.12695312 C0.76922841 7.28539628 -0.47556626 4.30557312 0 0 Z " fill="#2E4648" transform="translate(175,160)"/>
<path d="M0 0 C1.485 0.99 1.485 0.99 3 2 C3.34057617 3.87939453 3.34057617 3.87939453 3.29296875 6.1328125 C3.28330078 6.93847656 3.27363281 7.74414062 3.26367188 8.57421875 C3.23853516 9.41597656 3.21339844 10.25773438 3.1875 11.125 C3.17396484 11.97449219 3.16042969 12.82398438 3.14648438 13.69921875 C3.11108219 15.79974837 3.05727401 17.89995293 3 20 C7.10444167 19.86132739 11.2084704 19.71283897 15.3125 19.5625 C16.47974609 19.52318359 17.64699219 19.48386719 18.84960938 19.44335938 C19.96787109 19.40146484 21.08613281 19.35957031 22.23828125 19.31640625 C23.26993408 19.27974854 24.30158691 19.24309082 25.36450195 19.20532227 C28.10748258 19.09838758 28.10748258 19.09838758 31 18 C30.67 19.32 30.34 20.64 30 22 C20.1 22 10.2 22 0 22 C0 14.74 0 7.48 0 0 Z " fill="#2E4649" transform="translate(84,159)"/>
<path d="M0 0 C1.485 0.99 1.485 0.99 3 2 C3.25 5.0625 3.25 5.0625 3 8 C2.67 8.33 2.34 8.66 2 9 C1.95936168 10.66617115 1.957279 12.33388095 2 14 C3.32 14.33 4.64 14.66 6 15 C6 12.03 6 9.06 6 6 C6.66 6 7.32 6 8 6 C8 4.02 8 2.04 8 0 C8.33 0 8.66 0 9 0 C9 5.94 9 11.88 9 18 C6.03 18 3.06 18 0 18 C0 12.06 0 6.12 0 0 Z " fill="#223B3E" transform="translate(134,163)"/>
<path d="M0 0 C2.475 0.99 2.475 0.99 5 2 C5 2.33 5 2.66 5 3 C3.35 3 1.7 3 0 3 C0 6.63 0 10.26 0 14 C-2.97 14 -5.94 14 -9 14 C-9 11.69 -9 9.38 -9 7 C-8.3503125 7.9590625 -8.3503125 7.9590625 -7.6875 8.9375 C-6.08760823 11.26746003 -6.08760823 11.26746003 -3 12 C-3.03480469 11.38511719 -3.06960937 10.77023438 -3.10546875 10.13671875 C-3.13253906 9.32847656 -3.15960938 8.52023438 -3.1875 7.6875 C-3.22230469 6.88699219 -3.25710937 6.08648437 -3.29296875 5.26171875 C-2.93801608 2.52148416 -2.10633718 1.70828921 0 0 Z " fill="#284144" transform="translate(207,167)"/>
<path d="M0 0 C0.66 0.66 1.32 1.32 2 2 C1.01 3.98 0.02 5.96 -1 8 C2.62885324 8.15149298 2.62885324 8.15149298 6 7 C5.67 8.32 5.34 9.64 5 11 C1.7 11 -1.6 11 -5 11 C-3.77472971 6.94718288 -2.30119506 3.55639236 0 0 Z " fill="#2D4A4E" transform="translate(158,170)"/>
<path d="M0 0 C6.6 0 13.2 0 20 0 C20.33 1.32 20.66 2.64 21 4 C20.01 4.495 20.01 4.495 19 5 C18.67 4.34 18.34 3.68 18 3 C16.17971093 2.56574459 16.17971093 2.56574459 14 2.4375 C13.19691406 2.3653125 12.39382812 2.293125 11.56640625 2.21875 C10.71949219 2.1465625 9.87257813 2.074375 9 2 C7.3119804 1.81723698 5.62443838 1.62998742 3.9375 1.4375 C2.638125 1.293125 1.33875 1.14875 0 1 C0 0.67 0 0.34 0 0 Z " fill="#607072" transform="translate(49,166)"/>
<path d="M0 0 C0.33 0 0.66 0 1 0 C1 5.94 1 11.88 1 18 C0.34 18 -0.32 18 -1 18 C-2.3271261 14.0186217 -2.06915913 10.14954773 -2 6 C-1.34 6 -0.68 6 0 6 C0 4.02 0 2.04 0 0 Z " fill="#1E3639" transform="translate(142,163)"/>
<path d="M0 0 C0 0.66 0 1.32 0 2 C1.32 2.33 2.64 2.66 4 3 C4 3.66 4 4.32 4 5 C0.37 5 -3.26 5 -7 5 C-7 4.01 -7 3.02 -7 2 C-2.25 0 -2.25 0 0 0 Z " fill="#284245" transform="translate(230,176)"/>
<path d="M0 0 C3.79289237 0.27696396 7.58394132 0.57405103 11.375 0.875 C12.99535156 0.99294922 12.99535156 0.99294922 14.6484375 1.11328125 C16.1953125 1.23896484 16.1953125 1.23896484 17.7734375 1.3671875 C18.72653809 1.44050293 19.67963867 1.51381836 20.66162109 1.58935547 C23 2 23 2 25 4 C24.625 6.125 24.625 6.125 24 8 C23.34 6.68 22.68 5.36 22 4 C15.07 3.67 8.14 3.34 1 3 C0.67 2.01 0.34 1.02 0 0 Z " fill="#374747" transform="translate(200,151)"/>
<path d="M0 0 C3.63 0 7.26 0 11 0 C10.67 0.66 10.34 1.32 10 2 C9.34 2.144375 8.68 2.28875 8 2.4375 C7.34 2.623125 6.68 2.80875 6 3 C5.67 3.99 5.34 4.98 5 6 C4.34 6 3.68 6 3 6 C3 4.68 3 3.36 3 2 C2.01 2 1.02 2 0 2 C0 1.34 0 0.68 0 0 Z " fill="#445C5D" transform="translate(51,159)"/>
<path d="M0 0 C4.95 0 9.9 0 15 0 C14.67 0.66 14.34 1.32 14 2 C12.824375 1.9690625 12.824375 1.9690625 11.625 1.9375 C9.01885039 1.81315937 9.01885039 1.81315937 7 3 C4.6505947 2.39239518 2.31470912 1.72870472 0 1 C0 0.67 0 0.34 0 0 Z " fill="#214041" transform="translate(93,173)"/>
<path d="M0 0 C0.165 0.61875 0.33 1.2375 0.5 1.875 C2.90181375 5.27756949 6.00162134 5.22612026 10 6 C10 6.33 10 6.66 10 7 C7.3125 7.75 7.3125 7.75 4 8 C1.125 6.0625 1.125 6.0625 -1 4 C-0.67 2.68 -0.34 1.36 0 0 Z " fill="#354749" transform="translate(44,159)"/>
<path d="M0 0 C3 3 3 3 3.3984375 4.9375 C3.39070313 5.618125 3.38296875 6.29875 3.375 7 C3.38273437 7.680625 3.39046875 8.36125 3.3984375 9.0625 C3 11 3 11 0 14 C0 9.38 0 4.76 0 0 Z " fill="#1E3537" transform="translate(74,163)"/>
<path d="M0 0 C3.32532111 2.69192661 4.52454943 6.06546515 6 10 C6 10.99 6 11.98 6 13 C3.49387834 11.74693917 3.11615658 10.66521628 1.875 8.1875 C1.52179688 7.50042969 1.16859375 6.81335938 0.8046875 6.10546875 C0 4 0 4 0 0 Z " fill="#374A4C" transform="translate(269,164)"/>
<path d="M0 0 C3 1 3 1 4.1875 3.375 C5 6 5 6 5 9 C4.01 8.67 3.02 8.34 2 8 C0.5522078 5.10441559 0 3.25811062 0 0 Z " fill="#253D40" transform="translate(261,165)"/>
<path d="M0 0 C1.5 1.375 1.5 1.375 3 3 C3 3.66 3 4.32 3 5 C5.31 5 7.62 5 10 5 C10 5.33 10 5.66 10 6 C8.52093108 6.02689216 7.04172517 6.04634621 5.5625 6.0625 C4.32693359 6.07990234 4.32693359 6.07990234 3.06640625 6.09765625 C1 6 1 6 0 5 C-0.04063832 3.33382885 -0.042721 1.66611905 0 0 Z " fill="#233C3F" transform="translate(266,175)"/>
<path d="M0 0 C3.125 -0.1875 3.125 -0.1875 6 0 C6.33 0.99 6.66 1.98 7 3 C4.03 3 1.06 3 -2 3 C-1.34 2.01 -0.68 1.02 0 0 Z " fill="#2B4548" transform="translate(241,178)"/>
<path d="M0 0 C3 1 3 1 4.25 2.875 C5 5 5 5 4 8 C0 3.375 0 3.375 0 0 Z " fill="#334A4C" transform="translate(216,169)"/>
<path d="M0 0 C1.485 0.99 1.485 0.99 3 2 C3.1875 5.125 3.1875 5.125 3 8 C2.01 8.495 2.01 8.495 1 9 C-0.4783226 6.04335481 -0.06032783 3.25770263 0 0 Z " fill="#30494C" transform="translate(134,163)"/>
<path d="M0 0 C3.3 0 6.6 0 10 0 C6 3 6 3 3.875 2.8125 C2 2 2 2 0 0 Z " fill="#556F6F" transform="translate(84,146)"/>
<path d="M0 0 C0.66 0 1.32 0 2 0 C3.4606285 2.64738916 4 3.89448334 4 7 C3.01 6.67 2.02 6.34 1 6 C0.67 4.02 0.34 2.04 0 0 Z " fill="#23393C" transform="translate(180,173)"/>
<path d="M0 0 C-0.33 1.32 -0.66 2.64 -1 4 C-1.66 3.34 -2.32 2.68 -3 2 C-4.98821313 1.60235737 -6.98944339 1.26224651 -9 1 C-9 0.67 -9 0.34 -9 0 C-5.62182575 -0.84454356 -3.32534757 -1.10844919 0 0 Z " fill="#677677" transform="translate(70,167)"/>
</svg>
