<svg xmlns="http://www.w3.org/2000/svg" preserveAspectRatio="xMidYMid slice" viewBox="0 0 1600 900" role="img" aria-label="Setara branded teal night sky"><defs><linearGradient id="bg" x1="0" y1="0" x2="0" y2="1"><stop offset="0%" stop-color="#061625"/><stop offset="46%" stop-color="#0a3640"/><stop offset="100%" stop-color="#12665f"/></linearGradient></defs><style>.star{fill:#f1fffb}.star2{fill:#b9fff1}.star3{fill:#d6fff8}</style><rect width="1600" height="900" fill="url(#bg)"/><g stroke="#92f1df" stroke-opacity=".08" stroke-width="1.0" stroke-linejoin="round"><polygon points="0,0 123,0 104,111" fill="#071635" opacity="0.950"/><polygon points="0,0 104,111 0,73" fill="#042135" opacity="0.950"/><polygon points="123,0 249,0 269,114" fill="#0b102e" opacity="0.950"/><polygon points="123,0 269,114 104,111" fill="#081f29" opacity="0.950"/><polygon points="249,0 355,0 327,99" fill="#121c34" opacity="0.950"/><polygon points="249,0 327,99 269,114" fill="#111633" opacity="0.950"/><polygon points="355,0 442,0 327,99" fill="#0f2335" opacity="0.950"/><polygon points="442,0 458,108 327,99" fill="#0e1820" opacity="0.950"/><polygon points="442,0 556,0 547,102" fill="#0b2830" opacity="0.950"/><polygon points="442,0 547,102 458,108" fill="#012136" opacity="0.950"/><polygon points="556,0 696,0 547,102" fill="#0f1f21" opacity="0.820"/><polygon points="696,0 705,52 547,102" fill="#091326" opacity="0.820"/><polygon points="696,0 767,0 826,79" fill="#042131" opacity="0.950"/><polygon points="696,0 826,79 705,52" fill="#062726" opacity="0.950"/><polygon points="767,0 928,0 906,105" fill="#011824" opacity="0.950"/><polygon points="767,0 906,105 826,79" fill="#011f2d" opacity="0.950"/><polygon points="928,0 1045,0 906,105" fill="#002323" opacity="0.950"/><polygon points="1045,0 1049,111 906,105" fill="#00202b" opacity="0.820"/><polygon points="1045,0 1160,0 1137,53" fill="#022829" opacity="0.820"/><polygon points="1045,0 1137,53 1049,111" fill="#00152b" opacity="0.820"/><polygon points="1160,0 1221,0 1239,60" fill="#121a26" opacity="0.950"/><polygon points="1160,0 1239,60 1137,53" fill="#142824" opacity="0.950"/><polygon points="1221,0 1398,0 1335,96" fill="#0f2832" opacity="0.950"/><polygon points="1221,0 1335,96 1239,60" fill="#052531" opacity="0.950"/><polygon points="1398,0 1487,0 1335,96" fill="#131836" opacity="0.820"/><polygon points="1487,0 1479,49 1335,96" fill="#001b2f" opacity="0.950"/><polygon points="1487,0 1600,0 1600,70" fill="#00162f" opacity="0.950"/><polygon points="1487,0 1600,70 1479,49" fill="#001a2c" opacity="0.950"/><polygon points="0,73 104,111 99,145" fill="#142333" opacity="0.950"/><polygon points="0,73 99,145 0,157" fill="#0e1724" opacity="0.950"/><polygon points="104,111 269,114 99,145" fill="#15272b" opacity="0.950"/><polygon points="269,114 234,146 99,145" fill="#022a31" opacity="0.950"/><polygon points="269,114 327,99 331,155" fill="#00293a" opacity="0.950"/><polygon points="269,114 331,155 234,146" fill="#152838" opacity="0.820"/><polygon points="327,99 458,108 472,160" fill="#062b29" opacity="0.950"/><polygon points="327,99 472,160 331,155" fill="#151d3a" opacity="0.950"/><polygon points="458,108 547,102 472,160" fill="#0e1624" opacity="0.950"/><polygon points="547,102 570,174 472,160" fill="#112d26" opacity="0.950"/><polygon points="547,102 705,52 570,174" fill="#0e252a" opacity="0.950"/><polygon points="705,52 670,168 570,174" fill="#142d2b" opacity="0.950"/><polygon points="705,52 826,79 670,168" fill="#091738" opacity="0.820"/><polygon points="826,79 797,173 670,168" fill="#042f3a" opacity="0.950"/><polygon points="826,79 906,105 932,161" fill="#042439" opacity="0.950"/><polygon points="826,79 932,161 797,173" fill="#0e2628" opacity="0.950"/><polygon points="906,105 1049,111 932,161" fill="#081929" opacity="0.950"/><polygon points="1049,111 1033,137 932,161" fill="#09293b" opacity="0.950"/><polygon points="1049,111 1137,53 1181,154" fill="#041838" opacity="0.950"/><polygon points="1049,111 1181,154 1033,137" fill="#082826" opacity="0.950"/><polygon points="1137,53 1239,60 1181,154" fill="#14202d" opacity="0.950"/><polygon points="1239,60 1266,180 1181,154" fill="#042634" opacity="0.950"/><polygon points="1239,60 1335,96 1266,180" fill="#041731" opacity="0.950"/><polygon points="1335,96 1397,174 1266,180" fill="#001828" opacity="0.950"/><polygon points="1335,96 1479,49 1397,174" fill="#072239" opacity="0.950"/><polygon points="1479,49 1490,182 1397,174" fill="#101832" opacity="0.950"/><polygon points="1479,49 1600,70 1600,150" fill="#0b2c36" opacity="0.820"/><polygon points="1479,49 1600,150 1490,182" fill="#00193b" opacity="0.820"/><polygon points="0,157 99,145 145,255" fill="#121b2d" opacity="0.950"/><polygon points="0,157 145,255 0,241" fill="#052636" opacity="0.950"/><polygon points="99,145 234,146 233,225" fill="#11302d" opacity="0.950"/><polygon points="99,145 233,225 145,255" fill="#0e2033" opacity="0.950"/><polygon points="234,146 331,155 328,252" fill="#142533" opacity="0.950"/><polygon points="234,146 328,252 233,225" fill="#0a2a39" opacity="0.950"/><polygon points="331,155 472,160 328,252" fill="#002c30" opacity="0.950"/><polygon points="472,160 418,221 328,252" fill="#0f3437" opacity="0.950"/><polygon points="472,160 570,174 595,260" fill="#002630" opacity="0.950"/><polygon points="472,160 595,260 418,221" fill="#0d2139" opacity="0.820"/><polygon points="570,174 670,168 718,251" fill="#0f2f2e" opacity="0.950"/><polygon points="570,174 718,251 595,260" fill="#072737" opacity="0.950"/><polygon points="670,168 797,173 718,251" fill="#103136" opacity="0.950"/><polygon points="797,173 773,247 718,251" fill="#101e27" opacity="0.950"/><polygon points="797,173 932,161 773,247" fill="#002c2c" opacity="0.820"/><polygon points="932,161 895,243 773,247" fill="#0f2e3b" opacity="0.950"/><polygon points="932,161 1033,137 895,243" fill="#042328" opacity="0.950"/><polygon points="1033,137 1065,274 895,243" fill="#0a2b35" opacity="0.950"/><polygon points="1033,137 1181,154 1141,227" fill="#123139" opacity="0.950"/><polygon points="1033,137 1141,227 1065,274" fill="#02353f" opacity="0.950"/><polygon points="1181,154 1266,180 1141,227" fill="#12243d" opacity="0.950"/><polygon points="1266,180 1288,234 1141,227" fill="#072e28" opacity="0.950"/><polygon points="1266,180 1397,174 1288,234" fill="#02292a" opacity="0.950"/><polygon points="1397,174 1402,270 1288,234" fill="#033b38" opacity="0.950"/><polygon points="1397,174 1490,182 1463,267" fill="#033226" opacity="0.950"/><polygon points="1397,174 1463,267 1402,270" fill="#11353b" opacity="0.950"/><polygon points="1490,182 1600,150 1463,267" fill="#09313d" opacity="0.950"/><polygon points="1600,150 1600,217 1463,267" fill="#102f30" opacity="0.820"/><polygon points="0,241 145,255 0,294" fill="#04403a" opacity="0.950"/><polygon points="145,255 96,337 0,294" fill="#142c48" opacity="0.820"/><polygon points="145,255 233,225 245,352" fill="#063242" opacity="0.950"/><polygon points="145,255 245,352 96,337" fill="#093b44" opacity="0.820"/><polygon points="233,225 328,252 380,310" fill="#062a45" opacity="0.950"/><polygon points="233,225 380,310 245,352" fill="#0c383f" opacity="0.950"/><polygon points="328,252 418,221 380,310" fill="#102f3c" opacity="0.950"/><polygon points="418,221 420,356 380,310" fill="#0d3c3a" opacity="0.820"/><polygon points="418,221 595,260 420,356" fill="#10373c" opacity="0.950"/><polygon points="595,260 543,317 420,356" fill="#163135" opacity="0.950"/><polygon points="595,260 718,251 718,313" fill="#003d3b" opacity="0.820"/><polygon points="595,260 718,313 543,317" fill="#0b3734" opacity="0.950"/><polygon points="718,251 773,247 718,313" fill="#122f3f" opacity="0.950"/><polygon points="773,247 761,300 718,313" fill="#023c44" opacity="0.950"/><polygon points="773,247 895,243 761,300" fill="#003634" opacity="0.950"/><polygon points="895,243 885,356 761,300" fill="#003940" opacity="0.950"/><polygon points="895,243 1065,274 1038,293" fill="#0a353b" opacity="0.820"/><polygon points="895,243 1038,293 885,356" fill="#01423d" opacity="0.950"/><polygon points="1065,274 1141,227 1149,317" fill="#043440" opacity="0.950"/><polygon points="1065,274 1149,317 1038,293" fill="#114343" opacity="0.820"/><polygon points="1141,227 1288,234 1149,317" fill="#033840" opacity="0.950"/><polygon points="1288,234 1283,304 1149,317" fill="#133438" opacity="0.950"/><polygon points="1288,234 1402,270 1283,304" fill="#0f2c48" opacity="0.950"/><polygon points="1402,270 1357,345 1283,304" fill="#003747" opacity="0.950"/><polygon points="1402,270 1463,267 1357,345" fill="#0e2d43" opacity="0.950"/><polygon points="1463,267 1505,297 1357,345" fill="#0c2f44" opacity="0.820"/><polygon points="1463,267 1600,217 1505,297" fill="#0a3430" opacity="0.820"/><polygon points="1600,217 1600,325 1505,297" fill="#0a313c" opacity="0.950"/><polygon points="0,294 96,337 0,429" fill="#034242" opacity="0.950"/><polygon points="96,337 137,406 0,429" fill="#183b48" opacity="0.950"/><polygon points="96,337 245,352 137,406" fill="#083641" opacity="0.950"/><polygon points="245,352 218,435 137,406" fill="#083f3e" opacity="0.950"/><polygon points="245,352 380,310 218,435" fill="#163f48" opacity="0.950"/><polygon points="380,310 380,397 218,435" fill="#05324d" opacity="0.950"/><polygon points="380,310 420,356 426,403" fill="#063644" opacity="0.950"/><polygon points="380,310 426,403 380,397" fill="#0e3c46" opacity="0.950"/><polygon points="420,356 543,317 426,403" fill="#0e4739" opacity="0.820"/><polygon points="543,317 589,435 426,403" fill="#0c483a" opacity="0.950"/><polygon points="543,317 718,313 725,404" fill="#113342" opacity="0.950"/><polygon points="543,317 725,404 589,435" fill="#0e3542" opacity="0.820"/><polygon points="718,313 761,300 770,401" fill="#0f393b" opacity="0.950"/><polygon points="718,313 770,401 725,404" fill="#053e40" opacity="0.950"/><polygon points="761,300 885,356 770,401" fill="#10384c" opacity="0.820"/><polygon points="885,356 876,380 770,401" fill="#0c374b" opacity="0.820"/><polygon points="885,356 1038,293 1042,382" fill="#103949" opacity="0.950"/><polygon points="885,356 1042,382 876,380" fill="#16363b" opacity="0.950"/><polygon points="1038,293 1149,317 1143,439" fill="#0c3243" opacity="0.820"/><polygon points="1038,293 1143,439 1042,382" fill="#0d313b" opacity="0.950"/><polygon points="1149,317 1283,304 1297,440" fill="#043736" opacity="0.950"/><polygon points="1149,317 1297,440 1143,439" fill="#0e3d44" opacity="0.950"/><polygon points="1283,304 1357,345 1297,440" fill="#124647" opacity="0.950"/><polygon points="1357,345 1379,425 1297,440" fill="#15384b" opacity="0.950"/><polygon points="1357,345 1505,297 1518,437" fill="#06433c" opacity="0.950"/><polygon points="1357,345 1518,437 1379,425" fill="#083648" opacity="0.950"/><polygon points="1505,297 1600,325 1600,422" fill="#0a3a39" opacity="0.950"/><polygon points="1505,297 1600,422 1518,437" fill="#0b3738" opacity="0.950"/><polygon points="0,429 137,406 0,496" fill="#033f43" opacity="0.950"/><polygon points="137,406 93,488 0,496" fill="#12484b" opacity="0.950"/><polygon points="137,406 218,435 213,469" fill="#19454a" opacity="0.950"/><polygon points="137,406 213,469 93,488" fill="#02404e" opacity="0.950"/><polygon points="218,435 380,397 380,525" fill="#034548" opacity="0.950"/><polygon points="218,435 380,525 213,469" fill="#175049" opacity="0.950"/><polygon points="380,397 426,403 380,525" fill="#153743" opacity="0.950"/><polygon points="426,403 488,514 380,525" fill="#0f3f44" opacity="0.950"/><polygon points="426,403 589,435 488,514" fill="#02434b" opacity="0.950"/><polygon points="589,435 594,506 488,514" fill="#1a3f40" opacity="0.950"/><polygon points="589,435 725,404 594,506" fill="#133846" opacity="0.950"/><polygon points="725,404 714,472 594,506" fill="#11404f" opacity="0.950"/><polygon points="725,404 770,401 792,488" fill="#043b49" opacity="0.950"/><polygon points="725,404 792,488 714,472" fill="#123c4e" opacity="0.950"/><polygon points="770,401 876,380 912,519" fill="#07394f" opacity="0.820"/><polygon points="770,401 912,519 792,488" fill="#0f4740" opacity="0.950"/><polygon points="876,380 1042,382 1059,472" fill="#044438" opacity="0.950"/><polygon points="876,380 1059,472 912,519" fill="#0a4347" opacity="0.950"/><polygon points="1042,382 1143,439 1181,492" fill="#074d4d" opacity="0.950"/><polygon points="1042,382 1181,492 1059,472" fill="#0b4146" opacity="0.820"/><polygon points="1143,439 1297,440 1181,492" fill="#0b494e" opacity="0.950"/><polygon points="1297,440 1245,504 1181,492" fill="#0a3e53" opacity="0.820"/><polygon points="1297,440 1379,425 1245,504" fill="#123c3b" opacity="0.950"/><polygon points="1379,425 1408,510 1245,504" fill="#1a4e49" opacity="0.950"/><polygon points="1379,425 1518,437 1525,516" fill="#033d3b" opacity="0.950"/><polygon points="1379,425 1525,516 1408,510" fill="#0f423d" opacity="0.950"/><polygon points="1518,437 1600,422 1600,476" fill="#033949" opacity="0.820"/><polygon points="1518,437 1600,476 1525,516" fill="#0f4c43" opacity="0.950"/><polygon points="0,496 93,488 0,545" fill="#0b3c3e" opacity="0.950"/><polygon points="93,488 149,564 0,545" fill="#14513e" opacity="0.950"/><polygon points="93,488 213,469 149,564" fill="#13424f" opacity="0.950"/><polygon points="213,469 249,582 149,564" fill="#164451" opacity="0.950"/><polygon points="213,469 380,525 249,582" fill="#1b3d50" opacity="0.950"/><polygon points="380,525 346,569 249,582" fill="#0b5452" opacity="0.950"/><polygon points="380,525 488,514 496,566" fill="#044c4a" opacity="0.820"/><polygon points="380,525 496,566 346,569" fill="#0e5440" opacity="0.820"/><polygon points="488,514 594,506 560,549" fill="#0e4541" opacity="0.950"/><polygon points="488,514 560,549 496,566" fill="#19434a" opacity="0.950"/><polygon points="594,506 714,472 560,549" fill="#034a4a" opacity="0.950"/><polygon points="714,472 693,571 560,549" fill="#133f3e" opacity="0.820"/><polygon points="714,472 792,488 693,571" fill="#054344" opacity="0.950"/><polygon points="792,488 784,564 693,571" fill="#054d56" opacity="0.950"/><polygon points="792,488 912,519 784,564" fill="#035156" opacity="0.950"/><polygon points="912,519 912,564 784,564" fill="#0c4d41" opacity="0.950"/><polygon points="912,519 1059,472 1009,595" fill="#1b3f52" opacity="0.950"/><polygon points="912,519 1009,595 912,564" fill="#124f50" opacity="0.950"/><polygon points="1059,472 1181,492 1009,595" fill="#105551" opacity="0.950"/><polygon points="1181,492 1105,544 1009,595" fill="#183f4c" opacity="0.950"/><polygon points="1181,492 1245,504 1260,575" fill="#0a4444" opacity="0.950"/><polygon points="1181,492 1260,575 1105,544" fill="#1b3e51" opacity="0.950"/><polygon points="1245,504 1408,510 1374,564" fill="#124a51" opacity="0.950"/><polygon points="1245,504 1374,564 1260,575" fill="#0d454a" opacity="0.950"/><polygon points="1408,510 1525,516 1374,564" fill="#0e5353" opacity="0.950"/><polygon points="1525,516 1463,557 1374,564" fill="#054349" opacity="0.950"/><polygon points="1525,516 1600,476 1600,589" fill="#104b50" opacity="0.950"/><polygon points="1525,516 1600,589 1463,557" fill="#195050" opacity="0.820"/><polygon points="0,545 149,564 76,625" fill="#105241" opacity="0.950"/><polygon points="0,545 76,625 0,622" fill="#085458" opacity="0.820"/><polygon points="149,564 249,582 76,625" fill="#115d5f" opacity="0.950"/><polygon points="249,582 227,672 76,625" fill="#155760" opacity="0.950"/><polygon points="249,582 346,569 343,638" fill="#08505f" opacity="0.950"/><polygon points="249,582 343,638 227,672" fill="#07554f" opacity="0.950"/><polygon points="346,569 496,566 491,630" fill="#1a4e57" opacity="0.950"/><polygon points="346,569 491,630 343,638" fill="#166258" opacity="0.950"/><polygon points="496,566 560,549 580,627" fill="#164349" opacity="0.820"/><polygon points="496,566 580,627 491,630" fill="#1d5053" opacity="0.950"/><polygon points="560,549 693,571 580,627" fill="#075849" opacity="0.950"/><polygon points="693,571 719,678 580,627" fill="#075f56" opacity="0.950"/><polygon points="693,571 784,564 719,678" fill="#1f5857" opacity="0.950"/><polygon points="784,564 806,637 719,678" fill="#0f6350" opacity="0.950"/><polygon points="784,564 912,564 910,654" fill="#0c5d57" opacity="0.950"/><polygon points="784,564 910,654 806,637" fill="#115d5a" opacity="0.950"/><polygon points="912,564 1009,595 1059,675" fill="#1a614c" opacity="0.950"/><polygon points="912,564 1059,675 910,654" fill="#105252" opacity="0.950"/><polygon points="1009,595 1105,544 1059,675" fill="#1b5b59" opacity="0.950"/><polygon points="1105,544 1144,643 1059,675" fill="#0f5d4c" opacity="0.950"/><polygon points="1105,544 1260,575 1241,654" fill="#0c5e52" opacity="0.950"/><polygon points="1105,544 1241,654 1144,643" fill="#145651" opacity="0.950"/><polygon points="1260,575 1374,564 1241,654" fill="#11645b" opacity="0.950"/><polygon points="1374,564 1358,673 1241,654" fill="#07544d" opacity="0.950"/><polygon points="1374,564 1463,557 1358,673" fill="#115954" opacity="0.950"/><polygon points="1463,557 1490,678 1358,673" fill="#0d5e53" opacity="0.950"/><polygon points="1463,557 1600,589 1600,651" fill="#185851" opacity="0.950"/><polygon points="1463,557 1600,651 1490,678" fill="#115456" opacity="0.950"/><polygon points="0,622 76,625 99,704" fill="#1c594c" opacity="0.950"/><polygon points="0,622 99,704 0,738" fill="#075356" opacity="0.820"/><polygon points="76,625 227,672 269,768" fill="#1c645e" opacity="0.950"/><polygon points="76,625 269,768 99,704" fill="#1b6a61" opacity="0.950"/><polygon points="227,672 343,638 269,768" fill="#186854" opacity="0.950"/><polygon points="343,638 360,729 269,768" fill="#116562" opacity="0.950"/><polygon points="343,638 491,630 443,704" fill="#095154" opacity="0.950"/><polygon points="343,638 443,704 360,729" fill="#145f54" opacity="0.950"/><polygon points="491,630 580,627 575,745" fill="#185f62" opacity="0.950"/><polygon points="491,630 575,745 443,704" fill="#0a5766" opacity="0.950"/><polygon points="580,627 719,678 673,710" fill="#0b6551" opacity="0.950"/><polygon points="580,627 673,710 575,745" fill="#1e555d" opacity="0.950"/><polygon points="719,678 806,637 673,710" fill="#106851" opacity="0.950"/><polygon points="806,637 827,732 673,710" fill="#125d58" opacity="0.950"/><polygon points="806,637 910,654 916,741" fill="#195858" opacity="0.950"/><polygon points="806,637 916,741 827,732" fill="#116d56" opacity="0.820"/><polygon points="910,654 1059,675 916,741" fill="#0e5b62" opacity="0.820"/><polygon points="1059,675 1014,748 916,741" fill="#125a63" opacity="0.950"/><polygon points="1059,675 1144,643 1014,748" fill="#0e584f" opacity="0.820"/><polygon points="1144,643 1182,738 1014,748" fill="#11605d" opacity="0.950"/><polygon points="1144,643 1241,654 1182,738" fill="#0b5254" opacity="0.950"/><polygon points="1241,654 1238,759 1182,738" fill="#11635f" opacity="0.950"/><polygon points="1241,654 1358,673 1238,759" fill="#1c5452" opacity="0.820"/><polygon points="1358,673 1406,750 1238,759" fill="#106c4f" opacity="0.950"/><polygon points="1358,673 1490,678 1406,750" fill="#146566" opacity="0.950"/><polygon points="1490,678 1492,757 1406,750" fill="#0c6560" opacity="0.950"/><polygon points="1490,678 1600,651 1492,757" fill="#12645d" opacity="0.950"/><polygon points="1600,651 1600,750 1492,757" fill="#0c5f56" opacity="0.820"/><polygon points="0,738 99,704 143,852" fill="#136469" opacity="0.950"/><polygon points="0,738 143,852 0,818" fill="#146d60" opacity="0.950"/><polygon points="99,704 269,768 143,852" fill="#0f655c" opacity="0.950"/><polygon points="269,768 213,793 143,852" fill="#186460" opacity="0.820"/><polygon points="269,768 360,729 314,831" fill="#176558" opacity="0.950"/><polygon points="269,768 314,831 213,793" fill="#106367" opacity="0.950"/><polygon points="360,729 443,704 314,831" fill="#1f6d55" opacity="0.950"/><polygon points="443,704 445,812 314,831" fill="#086e57" opacity="0.950"/><polygon points="443,704 575,745 445,812" fill="#20585a" opacity="0.950"/><polygon points="575,745 553,789 445,812" fill="#1f6669" opacity="0.820"/><polygon points="575,745 673,710 553,789" fill="#086353" opacity="0.950"/><polygon points="673,710 677,837 553,789" fill="#196864" opacity="0.950"/><polygon points="673,710 827,732 834,817" fill="#196c51" opacity="0.950"/><polygon points="673,710 834,817 677,837" fill="#136b69" opacity="0.950"/><polygon points="827,732 916,741 936,814" fill="#155e66" opacity="0.950"/><polygon points="827,732 936,814 834,817" fill="#136167" opacity="0.950"/><polygon points="916,741 1014,748 989,792" fill="#1b605c" opacity="0.950"/><polygon points="916,741 989,792 936,814" fill="#1a655b" opacity="0.820"/><polygon points="1014,748 1182,738 989,792" fill="#086760" opacity="0.950"/><polygon points="1182,738 1114,847 989,792" fill="#0d7158" opacity="0.950"/><polygon points="1182,738 1238,759 1114,847" fill="#1c7061" opacity="0.820"/><polygon points="1238,759 1226,790 1114,847" fill="#127359" opacity="0.950"/><polygon points="1238,759 1406,750 1226,790" fill="#16605c" opacity="0.820"/><polygon points="1406,750 1371,832 1226,790" fill="#096667" opacity="0.950"/><polygon points="1406,750 1492,757 1489,850" fill="#0e6b53" opacity="0.950"/><polygon points="1406,750 1489,850 1371,832" fill="#165c5d" opacity="0.950"/><polygon points="1492,757 1600,750 1489,850" fill="#166256" opacity="0.950"/><polygon points="1600,750 1600,820 1489,850" fill="#1b675e" opacity="0.950"/><polygon points="0,818 143,852 0,900" fill="#0e7358" opacity="0.950"/><polygon points="143,852 100,900 0,900" fill="#12656e" opacity="0.950"/><polygon points="143,852 213,793 100,900" fill="#0e6863" opacity="0.950"/><polygon points="213,793 222,900 100,900" fill="#1b6556" opacity="0.950"/><polygon points="213,793 314,831 222,900" fill="#18686a" opacity="0.950"/><polygon points="314,831 305,900 222,900" fill="#0d7168" opacity="0.820"/><polygon points="314,831 445,812 463,900" fill="#206963" opacity="0.950"/><polygon points="314,831 463,900 305,900" fill="#1e695e" opacity="0.950"/><polygon points="445,812 553,789 561,900" fill="#145d66" opacity="0.950"/><polygon points="445,812 561,900 463,900" fill="#107358" opacity="0.950"/><polygon points="553,789 677,837 561,900" fill="#09755c" opacity="0.950"/><polygon points="677,837 653,900 561,900" fill="#0c6257" opacity="0.950"/><polygon points="677,837 834,817 785,900" fill="#1e7169" opacity="0.950"/><polygon points="677,837 785,900 653,900" fill="#186e6d" opacity="0.950"/><polygon points="834,817 936,814 785,900" fill="#096f6c" opacity="0.950"/><polygon points="936,814 917,900 785,900" fill="#0a755e" opacity="0.950"/><polygon points="936,814 989,792 1058,900" fill="#0d686b" opacity="0.950"/><polygon points="936,814 1058,900 917,900" fill="#226656" opacity="0.950"/><polygon points="989,792 1114,847 1058,900" fill="#0d635b" opacity="0.950"/><polygon points="1114,847 1158,900 1058,900" fill="#0f6a61" opacity="0.820"/><polygon points="1114,847 1226,790 1283,900" fill="#136661" opacity="0.950"/><polygon points="1114,847 1283,900 1158,900" fill="#1b6661" opacity="0.950"/><polygon points="1226,790 1371,832 1283,900" fill="#0a5f69" opacity="0.950"/><polygon points="1371,832 1356,900 1283,900" fill="#107860" opacity="0.950"/><polygon points="1371,832 1489,850 1511,900" fill="#1e6a5b" opacity="0.950"/><polygon points="1371,832 1511,900 1356,900" fill="#16656a" opacity="0.950"/><polygon points="1489,850 1600,820 1600,900" fill="#176569" opacity="0.950"/><polygon points="1489,850 1600,900 1511,900" fill="#1d7365" opacity="0.950"/></g><g stroke="#ddfff7" stroke-opacity=".05" stroke-width="0.9" stroke-linejoin="round"><polygon points="1343.5,453.7 1334.7,462.7 1320.9,451.7 1332.7,436.5" fill="#5a898a" opacity="0.072"/><polygon points="901.7,282.3 948.8,244.8 955.2,297.2" fill="#578689" opacity="0.135"/><polygon points="865.1,326.4 871.0,350.2 829.3,355.3 821.7,320.6" fill="#5c917d" opacity="0.103"/><polygon points="1168.7,196.5 1132.1,258.3 1050.5,244.2 1065.0,170.0" fill="#489183" opacity="0.146"/><polygon points="752.4,394.3 710.7,396.4 705.2,374.9 734.5,364.8" fill="#558090" opacity="0.080"/><polygon points="873.1,229.9 953.8,329.3 829.7,330.5" fill="#4b8680" opacity="0.060"/><polygon points="755.5,204.7 772.6,208.5 772.4,219.8 756.1,222.3" fill="#518c89" opacity="0.090"/><polygon points="503.4,323.9 484.9,306.4 517.9,301.2 530.2,329.1" fill="#4d8b7c" opacity="0.092"/><polygon points="618.6,501.4 656.4,460.6 686.6,504.0 656.9,538.1" fill="#548c84" opacity="0.079"/><polygon points="1143.2,420.5 1160.1,363.3 1227.8,388.3" fill="#498e81" opacity="0.106"/><polygon points="1282.3,502.3 1223.6,528.4 1216.0,457.8 1275.6,466.8" fill="#508f8d" opacity="0.116"/><polygon points="473.4,430.7 445.1,450.5 431.7,421.5 451.5,397.4" fill="#51828a" opacity="0.139"/><polygon points="695.2,402.3 721.5,373.5 787.4,398.8 752.5,444.7" fill="#4c818e" opacity="0.051"/><polygon points="1084.0,246.7 995.6,261.8 1051.6,189.2" fill="#4d8c7e" opacity="0.159"/><polygon points="625.2,299.2 637.3,227.9 713.1,262.8" fill="#4d847c" opacity="0.097"/><polygon points="1074.0,430.7 991.5,398.2 1084.4,318.2" fill="#4d8a8b" opacity="0.076"/><polygon points="526.4,401.7 521.1,449.9 485.3,420.7" fill="#498285" opacity="0.114"/><polygon points="1234.3,417.6 1220.1,361.1 1268.4,346.9 1286.2,389.0" fill="#4b8a8b" opacity="0.160"/><polygon points="1123.1,462.1 1102.6,456.6 1112.5,434.3 1126.8,433.8 1139.8,448.0" fill="#528f8c" opacity="0.097"/><polygon points="1008.6,424.0 1010.5,442.1 984.3,440.1 991.0,422.9" fill="#4b8e80" opacity="0.140"/><polygon points="969.4,483.8 971.1,444.9 1001.4,426.3 1031.7,448.5 1009.8,493.5" fill="#4e878b" opacity="0.097"/><polygon points="1419.7,277.5 1420.5,312.4 1379.2,331.2 1372.3,295.7" fill="#48848a" opacity="0.074"/><polygon points="779.3,430.4 788.6,362.1 906.5,398.6 848.3,469.7" fill="#4c917c" opacity="0.160"/><polygon points="573.4,348.2 508.0,322.5 578.4,295.7" fill="#4e7f8b" opacity="0.127"/><polygon points="883.8,188.2 902.6,210.9 879.5,230.4 856.3,207.3" fill="#57918d" opacity="0.082"/><polygon points="1013.7,419.3 1085.7,414.5 1052.0,480.6 990.9,473.6" fill="#57837f" opacity="0.053"/><polygon points="1023.3,539.2 961.8,540.1 989.2,494.8" fill="#547d81" opacity="0.151"/><polygon points="1019.1,496.3 971.8,453.5 1000.8,384.1 1072.6,443.5" fill="#4a8381" opacity="0.106"/><polygon points="687.0,452.6 686.6,425.7 719.8,432.5 712.8,450.3" fill="#5c8686" opacity="0.130"/><polygon points="1131.6,365.9 1076.5,284.8 1198.6,280.3" fill="#538086" opacity="0.073"/><polygon points="1086.2,383.0 1014.4,396.7 1014.3,328.5 1083.9,340.8" fill="#508d7c" opacity="0.068"/><polygon points="506.4,368.6 583.8,360.4 570.3,427.6" fill="#4f8586" opacity="0.103"/><polygon points="992.0,423.1 921.3,454.3 886.2,403.5 897.9,343.2 1018.6,355.4" fill="#4e7d86" opacity="0.087"/><polygon points="925.7,490.9 966.5,509.5 946.7,540.8 909.3,530.9" fill="#4e8b90" opacity="0.093"/><polygon points="984.6,414.8 1032.1,421.7 1004.2,477.6 948.0,495.3 913.5,439.0" fill="#53867c" opacity="0.093"/><polygon points="879.1,235.7 884.4,183.6 943.7,204.7 940.5,250.0" fill="#5b8289" opacity="0.146"/><polygon points="942.9,331.9 961.5,347.0 930.9,373.5 919.3,342.3" fill="#568b87" opacity="0.094"/><polygon points="893.6,258.4 939.7,281.8 917.5,309.4 880.4,297.2" fill="#4b898e" opacity="0.062"/><polygon points="658.8,425.0 708.8,456.2 668.9,472.8 639.6,455.0" fill="#4f8780" opacity="0.106"/><polygon points="870.0,291.0 870.2,252.9 903.9,273.2" fill="#4c8f8f" opacity="0.075"/><polygon points="912.4,345.7 844.2,394.3 781.8,351.0 846.4,295.2" fill="#548d81" opacity="0.145"/><polygon points="1130.6,299.4 1123.4,323.3 1084.9,299.6 1112.1,280.4" fill="#548b90" opacity="0.109"/><polygon points="1148.9,520.7 1099.1,487.6 1103.8,423.2 1183.1,415.3 1204.4,481.0" fill="#59828c" opacity="0.113"/><polygon points="916.7,193.6 871.1,218.9 869.3,181.1" fill="#4b9185" opacity="0.137"/><polygon points="1254.5,466.4 1278.8,441.5 1301.8,464.6 1270.8,487.1" fill="#54858c" opacity="0.092"/><polygon points="1460.4,398.5 1414.3,418.1 1378.0,372.7 1446.3,334.5" fill="#4e8a89" opacity="0.120"/><polygon points="521.9,440.5 493.5,405.4 545.7,399.8" fill="#3c767f" opacity="0.056"/><polygon points="561.3,407.1 581.2,415.5 588.4,427.6 563.5,434.2 556.0,420.5" fill="#4c6c7c" opacity="0.113"/><polygon points="333.5,363.2 371.3,391.0 338.8,422.9 283.2,398.2" fill="#408076" opacity="0.129"/><polygon points="421.3,448.3 429.0,466.8 421.8,484.7 397.9,471.4 403.9,455.2" fill="#447b82" opacity="0.092"/><polygon points="882.4,333.0 806.2,349.9 750.3,291.0 824.8,273.7" fill="#407778" opacity="0.066"/><polygon points="462.7,375.6 481.1,383.2 462.3,395.5 438.6,386.2" fill="#41796f" opacity="0.149"/><polygon points="571.1,454.6 587.9,431.1 604.8,458.8" fill="#498072" opacity="0.144"/><polygon points="798.9,415.2 697.4,403.1 737.8,314.1 816.6,338.7" fill="#3e7d82" opacity="0.135"/><polygon points="876.3,491.1 888.3,474.0 914.4,480.2 908.4,500.7" fill="#3f716e" opacity="0.108"/><polygon points="809.7,381.7 766.8,412.5 736.5,357.5 780.4,343.6" fill="#457882" opacity="0.055"/><polygon points="391.1,349.2 369.5,313.2 429.4,303.8 449.9,339.6" fill="#3f747e" opacity="0.139"/><polygon points="559.5,340.5 605.6,335.3 603.7,371.6 555.1,385.1" fill="#4d6e79" opacity="0.056"/><polygon points="527.7,388.4 495.3,394.9 503.5,364.1 534.0,368.6" fill="#3b787d" opacity="0.144"/><polygon points="590.9,394.5 551.7,412.7 527.9,393.5 551.8,371.5 576.7,375.2" fill="#4d7373" opacity="0.053"/><polygon points="514.0,505.9 512.8,490.6 528.3,488.7 534.2,502.4 526.2,513.6" fill="#496d72" opacity="0.076"/><polygon points="542.3,457.0 485.0,487.3 486.2,439.1" fill="#407478" opacity="0.064"/><polygon points="437.6,423.1 393.9,446.8 371.0,429.0 396.4,402.0" fill="#49807b" opacity="0.084"/><polygon points="727.3,391.5 771.2,510.5 646.3,479.2" fill="#477f7c" opacity="0.052"/><polygon points="442.9,301.1 525.4,317.1 474.9,372.7" fill="#3e726f" opacity="0.152"/><polygon points="643.6,351.0 696.6,361.6 692.7,413.2 633.1,413.9 607.0,378.6" fill="#477575" opacity="0.057"/><polygon points="572.0,291.0 554.1,280.9 561.4,263.5 578.1,260.2 591.2,279.3" fill="#437771" opacity="0.118"/><polygon points="314.8,439.8 345.9,394.0 370.0,423.0" fill="#407f81" opacity="0.116"/><polygon points="566.2,514.6 589.8,469.1 632.5,491.6 622.4,525.0" fill="#49747d" opacity="0.147"/><polygon points="496.8,465.7 526.4,490.0 504.0,523.5 461.4,507.0" fill="#4b757e" opacity="0.103"/><polygon points="470.4,359.7 493.2,384.6 443.8,386.0" fill="#497e75" opacity="0.154"/><polygon points="411.5,375.5 483.2,353.8 464.4,424.9" fill="#49767f" opacity="0.123"/><polygon points="832.3,257.0 868.1,285.2 816.5,302.8" fill="#3f7a71" opacity="0.099"/><polygon points="686.3,327.4 664.6,301.4 695.2,291.2 707.8,313.7" fill="#3d7679" opacity="0.114"/><polygon points="866.6,474.5 891.2,424.3 957.4,441.9 922.8,503.0" fill="#46726e" opacity="0.147"/><polygon points="385.8,401.7 396.9,370.4 434.5,383.0 440.0,407.0 420.0,424.9" fill="#497e82" opacity="0.083"/></g><g opacity=".98"><circle class="star2" cx="643.3" cy="267.7" r="1.6" opacity="0.72"/><circle class="star2" cx="772.7" cy="311.6" r="1.6" opacity="0.94"/><circle class="star" cx="1510.3" cy="66.5" r="2.2" opacity="0.96"/><circle class="star" cx="1469.7" cy="375.3" r="1.8" opacity="0.95"/><circle class="star" cx="1462.4" cy="120.1" r="2.0" opacity="0.97"/><circle class="star2" cx="1217.1" cy="256.2" r="2.8" opacity="0.94"/><circle class="star2" cx="604.8" cy="444.7" r="2.8" opacity="0.74"/><circle class="star3" cx="318.6" cy="401.3" r="2.8" opacity="0.70"/><circle class="star2" cx="1335.5" cy="302.5" r="2.4" opacity="0.92"/><circle class="star3" cx="1240.2" cy="595.5" r="1.2" opacity="0.82"/><circle class="star3" cx="1229.1" cy="65.7" r="1.6" opacity="0.79"/><circle class="star3" cx="1431.6" cy="341.9" r="2.8" opacity="0.70"/><circle class="star2" cx="1340.3" cy="267.1" r="2.2" opacity="1.00"/><circle class="star2" cx="511.8" cy="427.9" r="1.4" opacity="0.97"/><circle class="star" cx="571.8" cy="219.4" r="2.0" opacity="0.96"/><circle class="star2" cx="311.8" cy="336.7" r="1.6" opacity="0.83"/><circle class="star" cx="890.0" cy="181.5" r="1.8" opacity="0.75"/><circle class="star3" cx="357.8" cy="386.0" r="1.8" opacity="0.90"/><circle class="star2" cx="658.4" cy="645.7" r="1.8" opacity="0.94"/><circle class="star3" cx="1457.5" cy="353.4" r="2.0" opacity="0.74"/><circle class="star3" cx="1194.5" cy="326.2" r="2.8" opacity="0.69"/><circle class="star" cx="432.2" cy="330.5" r="2.8" opacity="0.86"/><circle class="star" cx="1398.1" cy="416.5" r="1.2" opacity="0.84"/><circle class="star3" cx="1453.6" cy="330.6" r="2.2" opacity="0.84"/><circle class="star2" cx="973.8" cy="321.4" r="2.2" opacity="0.76"/><circle class="star3" cx="1134.0" cy="300.8" r="1.2" opacity="0.97"/><circle class="star" cx="588.2" cy="50.4" r="2.2" opacity="0.81"/><circle class="star2" cx="576.7" cy="512.1" r="2.0" opacity="0.66"/><circle class="star3" cx="1147.8" cy="175.4" r="1.4" opacity="0.84"/><circle class="star" cx="730.3" cy="246.3" r="2.2" opacity="0.71"/><circle class="star3" cx="1256.1" cy="44.9" r="2.2" opacity="0.87"/><circle class="star" cx="623.5" cy="251.5" r="1.4" opacity="0.93"/><circle class="star2" cx="964.5" cy="379.2" r="1.8" opacity="0.70"/><circle class="star" cx="449.1" cy="383.9" r="2.4" opacity="0.76"/><circle class="star3" cx="1466.9" cy="621.0" r="1.6" opacity="0.87"/><circle class="star" cx="1554.2" cy="421.7" r="2.2" opacity="0.79"/><circle class="star" cx="105.9" cy="561.5" r="1.8" opacity="0.68"/><circle class="star2" cx="1053.5" cy="267.3" r="2.4" opacity="0.72"/><circle class="star3" cx="359.6" cy="151.1" r="1.2" opacity="0.99"/><circle class="star" cx="710.2" cy="361.6" r="1.2" opacity="0.70"/><circle class="star" cx="497.6" cy="563.4" r="2.4" opacity="0.81"/><circle class="star" cx="309.2" cy="571.1" r="1.2" opacity="0.79"/><circle class="star2" cx="149.6" cy="193.3" r="1.4" opacity="0.69"/><circle class="star2" cx="173.2" cy="80.4" r="1.4" opacity="0.73"/><circle class="star2" cx="1408.5" cy="547.9" r="2.0" opacity="0.85"/><circle class="star3" cx="405.2" cy="511.0" r="1.8" opacity="0.84"/><circle class="star2" cx="486.9" cy="209.2" r="2.8" opacity="0.68"/><circle class="star2" cx="381.3" cy="591.5" r="2.0" opacity="0.94"/><circle class="star2" cx="413.5" cy="344.1" r="1.8" opacity="0.82"/><circle class="star2" cx="220.2" cy="543.4" r="1.4" opacity="0.95"/><circle class="star2" cx="1110.4" cy="299.0" r="2.4" opacity="0.69"/><circle class="star" cx="700.4" cy="205.0" r="2.2" opacity="0.94"/><circle class="star3" cx="1340.7" cy="108.5" r="1.2" opacity="0.81"/><circle class="star3" cx="1230.1" cy="551.1" r="1.6" opacity="0.89"/><circle class="star3" cx="871.8" cy="492.1" r="1.2" opacity="0.79"/><circle class="star3" cx="904.5" cy="391.6" r="1.8" opacity="0.84"/><circle class="star3" cx="189.6" cy="125.1" r="2.4" opacity="0.79"/><circle class="star" cx="770.5" cy="397.8" r="1.8" opacity="0.89"/><circle class="star3" cx="1514.2" cy="306.9" r="2.8" opacity="0.85"/><circle class="star" cx="615.4" cy="312.3" r="2.0" opacity="0.91"/><circle class="star3" cx="836.1" cy="218.8" r="2.4" opacity="0.95"/><circle class="star" cx="407.9" cy="216.4" r="1.4" opacity="0.83"/><circle class="star2" cx="1278.9" cy="629.9" r="2.0" opacity="0.74"/><circle class="star3" cx="1191.2" cy="461.5" r="2.4" opacity="0.80"/><circle class="star2" cx="1418.6" cy="255.6" r="2.0" opacity="0.90"/><circle class="star2" cx="956.1" cy="424.5" r="2.8" opacity="0.70"/><circle class="star" cx="456.1" cy="346.9" r="1.2" opacity="0.74"/><circle class="star" cx="711.3" cy="416.8" r="1.4" opacity="0.76"/><circle class="star3" cx="473.0" cy="113.6" r="2.0" opacity="0.92"/><circle class="star3" cx="1008.2" cy="562.3" r="1.2" opacity="0.69"/><circle class="star3" cx="215.1" cy="156.8" r="2.2" opacity="0.79"/><circle class="star3" cx="673.9" cy="219.5" r="2.8" opacity="0.89"/><circle class="star2" cx="705.1" cy="336.6" r="2.4" opacity="0.89"/><circle class="star2" cx="679.7" cy="259.6" r="1.6" opacity="0.90"/><circle class="star3" cx="226.2" cy="255.8" r="1.8" opacity="0.84"/><circle class="star3" cx="385.2" cy="272.1" r="1.6" opacity="0.75"/><circle class="star3" cx="1466.2" cy="284.3" r="2.4" opacity="0.99"/><circle class="star2" cx="678.2" cy="485.9" r="2.2" opacity="0.82"/><circle class="star" cx="1101.8" cy="261.1" r="1.2" opacity="0.70"/><circle class="star" cx="1208.1" cy="352.1" r="1.4" opacity="0.95"/><circle class="star3" cx="966.8" cy="285.2" r="2.4" opacity="0.80"/><circle class="star2" cx="471.7" cy="86.8" r="2.2" opacity="0.88"/><circle class="star2" cx="262.8" cy="88.9" r="1.4" opacity="0.67"/><circle class="star" cx="1332.3" cy="537.9" r="1.8" opacity="0.77"/><circle class="star" cx="1434.8" cy="170.7" r="1.2" opacity="0.88"/><circle class="star" cx="286.0" cy="523.0" r="2.4" opacity="0.92"/><circle class="star2" cx="823.0" cy="503.3" r="2.8" opacity="0.82"/><circle class="star3" cx="653.2" cy="135.6" r="2.2" opacity="0.84"/><circle class="star2" cx="720.4" cy="99.9" r="2.8" opacity="0.70"/><circle class="star2" cx="1359.5" cy="193.3" r="2.4" opacity="0.66"/><circle class="star2" cx="1036.2" cy="359.2" r="1.8" opacity="0.84"/><circle class="star2" cx="1357.2" cy="75.4" r="1.8" opacity="0.80"/><circle class="star3" cx="404.0" cy="105.8" r="1.6" opacity="0.78"/><circle class="star2" cx="544.4" cy="315.8" r="2.4" opacity="0.82"/><circle class="star3" cx="55.1" cy="376.3" r="1.4" opacity="0.67"/><circle class="star3" cx="145.6" cy="170.1" r="1.8" opacity="0.96"/><circle class="star3" cx="1151.0" cy="114.5" r="1.2" opacity="0.91"/><circle class="star2" cx="981.2" cy="62.7" r="1.2" opacity="0.85"/><circle class="star3" cx="377.5" cy="398.1" r="1.6" opacity="0.91"/><circle class="star" cx="409.0" cy="365.5" r="2.8" opacity="0.97"/><circle class="star3" cx="556.0" cy="271.1" r="2.0" opacity="0.67"/><circle class="star3" cx="720.1" cy="589.6" r="1.2" opacity="0.84"/><circle class="star2" cx="613.5" cy="94.7" r="1.2" opacity="0.83"/><circle class="star" cx="1310.5" cy="476.3" r="2.8" opacity="0.89"/><circle class="star3" cx="836.4" cy="192.6" r="2.4" opacity="0.89"/><circle class="star3" cx="106.7" cy="607.1" r="1.6" opacity="0.95"/><circle class="star3" cx="975.1" cy="483.3" r="2.8" opacity="0.97"/><circle class="star3" cx="1152.3" cy="623.1" r="2.4" opacity="0.90"/><circle class="star3" cx="665.2" cy="47.3" r="1.4" opacity="0.79"/><circle class="star" cx="43.7" cy="522.7" r="2.8" opacity="0.72"/><polygon points="547.688029025725,275.81687080406266 549.3252230049262,279.6369900888657 553.1453422897292,281.2741840680669 549.3252230049262,282.91137804726816 547.688029025725,286.73149733207117 546.0508350465237,282.91137804726816 542.2307157617207,281.2741840680669 546.0508350465237,279.6369900888657" fill="#d6fff8" opacity="0.557"/><polygon points="790.1236319833083,101.82453585226442 791.573425950365,105.20738844206349 794.9562785401641,106.65718240912022 791.573425950365,108.10697637617696 790.1236319833083,111.48982896597603 788.6738380162516,108.10697637617696 785.2909854264525,106.65718240912022 788.6738380162516,105.20738844206349" fill="#d6fff8" opacity="0.752"/><polygon points="892.5972759080506,309.34317998559015 894.4101805222325,313.57329075201454 898.6402912886568,315.38619536619643 894.4101805222325,317.1990999803783 892.5972759080506,321.4292107468027 890.7843712938687,317.1990999803783 886.5542605274444,315.38619536619643 890.7843712938687,313.57329075201454" fill="#d6fff8" opacity="0.741"/><polygon points="324.07033758420965,142.58722470926298 326.5920820569224,148.4712951455927 332.4761524932521,150.99303961830543 326.5920820569224,153.51478409101816 324.07033758420965,159.39885452734788 321.5485931114969,153.51478409101816 315.66452267516723,150.99303961830543 321.5485931114969,148.4712951455927" fill="#d6fff8" opacity="0.691"/><polygon points="591.8170327687259,321.31034295599414 593.786013241667,325.9046307261901 598.3803010118629,327.8736111991312 593.786013241667,329.8425916720723 591.8170327687259,334.4368794422682 589.8480522957848,329.8425916720723 585.2537645255888,327.8736111991312 589.8480522957848,325.9046307261901" fill="#d6fff8" opacity="0.535"/><polygon points="585.2139515360258,145.7734174101594 587.5235547358784,151.16249154314883 592.9126288688678,153.47209474300143 587.5235547358784,155.78169794285404 585.2139515360258,161.17077207584347 582.9043483361731,155.78169794285404 577.5152742031837,153.47209474300143 582.9043483361731,151.16249154314883" fill="#f1fffb" opacity="0.637"/><polygon points="1121.5365199432788,389.7938827956601 1123.2597604641069,393.8147773442592 1127.2806550127061,395.5380178650874 1123.2597604641069,397.2612583859156 1121.5365199432788,401.28215293451467 1119.8132794224507,397.2612583859156 1115.7923848738515,395.5380178650874 1119.8132794224507,393.8147773442592" fill="#f1fffb" opacity="0.722"/><polygon points="1195.992613376237,210.8522779970215 1198.2572263135385,216.136374850725 1203.541323167242,218.4009877880265 1198.2572263135385,220.665600725328 1195.992613376237,225.9496975790315 1193.7280004389354,220.665600725328 1188.443903585232,218.4009877880265 1193.7280004389354,216.136374850725" fill="#d6fff8" opacity="0.538"/><polygon points="1201.984249988977,141.1073303057627 1203.4455163544021,144.51695182508817 1206.8551378737277,145.9782181905134 1203.4455163544021,147.4394845559386 1201.984249988977,150.84910607526407 1200.5229836235517,147.4394845559386 1197.113362104226,145.9782181905134 1200.5229836235517,144.51695182508817" fill="#d6fff8" opacity="0.509"/><polygon points="1015.7394109465677,93.06987624203582 1018.3309900729436,99.11689420357962 1024.3780080344873,101.70847332995554 1018.3309900729436,104.30005245633146 1015.7394109465677,110.34707041787526 1013.1478318201918,104.30005245633146 1007.1008138586479,101.70847332995554 1013.1478318201918,99.11689420357962" fill="#b9fff1" opacity="0.684"/><polygon points="184.28992541803004,128.68185023533061 186.4487612285469,133.7191337932033 191.4860447864196,135.87796960372017 186.4487612285469,138.03680541423705 184.28992541803004,143.07408897210973 182.13108960751316,138.03680541423705 177.09380604964048,135.87796960372017 182.13108960751316,133.7191337932033" fill="#f1fffb" opacity="0.548"/><polygon points="952.116634166229,420.0752155910336 953.9897024278678,424.445708201524 958.3601950383581,426.31877646316275 953.9897024278678,428.1918447248015 952.116634166229,432.5623373352919 950.2435659045902,428.1918447248015 945.8730732940999,426.31877646316275 950.2435659045902,424.445708201524" fill="#f1fffb" opacity="0.625"/><polygon points="160.52548943527364,176.08658875111243 162.0882344815047,179.73299385898488 165.73463958937717,181.29573890521596 162.0882344815047,182.85848395144703 160.52548943527364,186.50488905931948 158.96274438904257,182.85848395144703 155.31633928117012,181.29573890521596 158.96274438904257,179.73299385898488" fill="#b9fff1" opacity="0.779"/><polygon points="1382.196396208788,183.17268973028922 1383.6082982329233,186.46712778660483 1386.9027362892389,187.8790298107401 1383.6082982329233,189.29093183487535 1382.196396208788,192.58536989119096 1380.7844941846527,189.29093183487535 1377.490056128337,187.8790298107401 1380.7844941846527,186.46712778660483" fill="#b9fff1" opacity="0.526"/><polygon points="140.93348587697443,368.1743201839063 143.76677679672775,374.7853323299974 150.37778894281888,377.6186232497507 143.76677679672775,380.45191416950405 140.93348587697443,387.0629263155952 138.1001949572211,380.45191416950405 131.48918281112998,377.6186232497507 138.1001949572211,374.7853323299974" fill="#b9fff1" opacity="0.686"/><polygon points="905.5335058993747,302.0212408962302 907.1484010680426,305.78932962312194 910.9164897949344,307.40422479178983 907.1484010680426,309.0191199604577 905.5335058993747,312.78720868734945 903.9186107307069,309.0191199604577 900.1505220038151,307.40422479178983 903.9186107307069,305.78932962312194" fill="#d6fff8" opacity="0.650"/><polygon points="125.17217028804596,61.2629089471995 127.35715446005632,66.361205348557 132.45545086141382,68.54618952056735 127.35715446005632,70.73117369257771 125.17217028804596,75.82947009393521 122.9871861160356,70.73117369257771 117.8888897146781,68.54618952056735 122.9871861160356,66.361205348557" fill="#d6fff8" opacity="0.841"/><polygon points="1382.28397400485,359.1848320703582 1384.427505253243,364.1864049832752 1389.42907816616,366.3299362316682 1384.427505253243,368.47346748006123 1382.28397400485,373.47504039297826 1380.140442756457,368.47346748006123 1375.13886984354,366.3299362316682 1380.140442756457,364.1864049832752" fill="#d6fff8" opacity="0.513"/><polygon points="1075.6907726552315,65.67061703354703 1078.2628727100148,71.67218382804111 1084.2644395045088,74.24428388282429 1078.2628727100148,76.81638393760747 1075.6907726552315,82.81795073210155 1073.1186726004482,76.81638393760747 1067.1171058059542,74.24428388282429 1073.1186726004482,71.67218382804111" fill="#f1fffb" opacity="0.675"/><polygon points="1455.1318631011022,64.189989544089 1457.8603237973985,70.55639783544667 1464.226732088756,73.28485853174281 1457.8603237973985,76.01331922803895 1455.1318631011022,82.37972751939662 1452.403402404806,76.01331922803895 1446.0369941134484,73.28485853174281 1452.403402404806,70.55639783544667" fill="#d6fff8" opacity="0.563"/><polygon points="1548.5502797343763,284.41376806864076 1551.192794358001,290.579635523765 1557.358661813125,293.22215014738964 1551.192794358001,295.8646647710143 1548.5502797343763,302.0305322261385 1545.9077651107516,295.8646647710143 1539.7418976556276,293.22215014738964 1545.9077651107516,290.579635523765" fill="#f1fffb" opacity="0.714"/><polygon points="1072.211975148262,309.2855166907019 1074.4510546929243,314.5100356282475 1079.67557363047,316.7491151729099 1074.4510546929243,318.9881947175723 1072.211975148262,324.2127136551179 1069.9728956035995,318.9881947175723 1064.748376666054,316.7491151729099 1069.9728956035995,314.5100356282475" fill="#d6fff8" opacity="0.807"/></g><path d="M 0 125.3 C 90.0 132.8, 180.0 134.2, 270.0 135.0 C 270.0 135.0, 360.0 137.0, 450.0 127.5 C 450.0 127.5, 540.0 130.4, 630.0 121.4 C 630.0 121.4, 720.0 114.0, 810.0 119.4 C 810.0 119.4, 900.0 115.8, 990.0 126.7 C 990.0 126.7, 1080.0 128.5, 1170.0 128.1 C 1170.0 128.1, 1260.0 138.8, 1350.0 133.2 C 1350.0 133.2, 1440.0 137.9, 1530.0 124.8" stroke="#9af5e4" stroke-opacity="0.150" stroke-width="1.45" fill="none" stroke-linecap="round" stroke-linejoin="round"/><path d="M 0 184.8 C 90.0 192.4, 180.0 190.7, 270.0 190.2 C 270.0 190.2, 360.0 184.0, 450.0 183.5 C 450.0 183.5, 540.0 180.3, 630.0 170.7 C 630.0 170.7, 720.0 172.7, 810.0 172.7 C 810.0 172.7, 900.0 178.3, 990.0 186.8 C 990.0 186.8, 1080.0 187.8, 1170.0 190.2 C 1170.0 190.2, 1260.0 192.8, 1350.0 193.6 C 1350.0 193.6, 1440.0 192.3, 1530.0 186.6" stroke="#88ead9" stroke-opacity="0.140" stroke-width="1.45" fill="none" stroke-linecap="round" stroke-linejoin="round"/><path d="M 0 252.2 C 90.0 252.8, 180.0 260.5, 270.0 249.0 C 270.0 249.0, 360.0 247.4, 450.0 235.3 C 450.0 235.3, 540.0 233.6, 630.0 233.3 C 630.0 233.3, 720.0 236.7, 810.0 235.1 C 810.0 235.1, 900.0 242.1, 990.0 252.6 C 990.0 252.6, 1080.0 254.9, 1170.0 253.1 C 1170.0 253.1, 1260.0 254.1, 1350.0 248.6 C 1350.0 248.6, 1440.0 247.3, 1530.0 239.5" stroke="#74dbc9" stroke-opacity="0.130" stroke-width="1.45" fill="none" stroke-linecap="round" stroke-linejoin="round"/><path d="M 0 334.5 C 90.0 338.3, 180.0 336.8, 270.0 330.4 C 270.0 330.4, 360.0 321.4, 450.0 313.5 C 450.0 313.5, 540.0 309.1, 630.0 314.4 C 630.0 314.4, 720.0 314.0, 810.0 319.0 C 810.0 319.0, 900.0 327.3, 990.0 334.4 C 990.0 334.4, 1080.0 337.9, 1170.0 335.7 C 1170.0 335.7, 1260.0 332.0, 1350.0 329.6 C 1350.0 329.6, 1440.0 314.7, 1530.0 308.3" stroke="#63c8b7" stroke-opacity="0.120" stroke-width="1.45" fill="none" stroke-linecap="round" stroke-linejoin="round"/><path d="M 0 431.8 C 90.0 427.0, 180.0 427.6, 270.0 417.2 C 270.0 417.2, 360.0 409.3, 450.0 396.6 C 450.0 396.6, 540.0 403.3, 630.0 408.4 C 630.0 408.4, 720.0 410.8, 810.0 420.4 C 810.0 420.4, 900.0 430.4, 990.0 433.6 C 990.0 433.6, 1080.0 433.3, 1170.0 429.8 C 1170.0 429.8, 1260.0 424.5, 1350.0 415.4 C 1350.0 415.4, 1440.0 409.0, 1530.0 404.4" stroke="#56b7a8" stroke-opacity="0.110" stroke-width="1.22" fill="none" stroke-linecap="round" stroke-linejoin="round"/><path d="M 0 545.7 C 90.0 542.0, 180.0 528.3, 270.0 522.3 C 270.0 522.3, 360.0 514.8, 450.0 519.5 C 450.0 519.5, 540.0 519.3, 630.0 527.7 C 630.0 527.7, 720.0 535.8, 810.0 546.8 C 810.0 546.8, 900.0 553.0, 990.0 548.7 C 990.0 548.7, 1080.0 552.5, 1170.0 539.6 C 1170.0 539.6, 1260.0 526.9, 1350.0 524.2 C 1350.0 524.2, 1440.0 511.2, 1530.0 517.7" stroke="#4ea497" stroke-opacity="0.070" stroke-width="1.22" fill="none" stroke-linecap="round" stroke-linejoin="round"/><path d="M 0 665.8 C 90.0 660.6, 180.0 641.6, 270.0 642.8 C 270.0 642.8, 360.0 638.4, 450.0 643.2 C 450.0 643.2, 540.0 648.9, 630.0 658.9 C 630.0 658.9, 720.0 671.7, 810.0 675.3 C 810.0 675.3, 900.0 682.8, 990.0 674.7 C 990.0 674.7, 1080.0 668.3, 1170.0 657.1 C 1170.0 657.1, 1260.0 641.8, 1350.0 638.1 C 1350.0 638.1, 1440.0 633.1, 1530.0 638.0" stroke="#448c84" stroke-opacity="0.070" stroke-width="1.22" fill="none" stroke-linecap="round" stroke-linejoin="round"/><path d="M 0 775.5 C 90.0 773.0, 180.0 759.5, 270.0 755.9 C 270.0 755.9, 360.0 762.6, 450.0 766.4 C 450.0 766.4, 540.0 777.1, 630.0 788.2 C 630.0 788.2, 720.0 796.9, 810.0 800.8 C 810.0 800.8, 900.0 796.5, 990.0 789.5 C 990.0 789.5, 1080.0 776.5, 1170.0 770.8 C 1170.0 770.8, 1260.0 759.4, 1350.0 760.8 C 1350.0 760.8, 1440.0 762.1, 1530.0 771.3" stroke="#3f7974" stroke-opacity="0.070" stroke-width="1.22" fill="none" stroke-linecap="round" stroke-linejoin="round"/><g stroke="#b3fff2" stroke-opacity=".05" stroke-width="0.9" stroke-linejoin="round"><polygon points="0,668 91,701 91,800 0,828" fill="#30928b" opacity="0.220"/><polygon points="91,701 191,692 191,816 91,813" fill="#2a9690" opacity="0.220"/><polygon points="191,692 320,672 320,822 191,805" fill="#2a908f" opacity="0.220"/><polygon points="320,672 504,668 504,828 320,826" fill="#2aa182" opacity="0.220"/><polygon points="504,668 622,707 622,797 504,795" fill="#2b9b8b" opacity="0.220"/><polygon points="622,707 819,675 819,817 622,803" fill="#2c9384" opacity="0.220"/><polygon points="819,675 925,677 925,796 819,797" fill="#2a9a94" opacity="0.220"/><polygon points="925,677 1043,703 1043,818 925,807" fill="#2ca291" opacity="0.220"/><polygon points="1043,703 1164,687 1164,831 1043,813" fill="#329183" opacity="0.220"/><polygon points="1164,687 1277,701 1277,833 1164,795" fill="#27a18e" opacity="0.220"/><polygon points="1277,701 1409,702 1409,821 1277,814" fill="#2fa491" opacity="0.220"/><polygon points="1409,702 1532,679 1532,811 1409,831" fill="#2c908b" opacity="0.220"/><polygon points="1532,679 1600,691 1600,805 1532,829" fill="#33a494" opacity="0.220"/><polygon points="0,742 189,772 189,896 0,891" fill="#46b2a5" opacity="0.200"/><polygon points="189,772 284,773 284,888 189,899" fill="#45b3ae" opacity="0.200"/><polygon points="284,773 375,744 375,896 284,900" fill="#57b49d" opacity="0.200"/><polygon points="375,744 519,742 519,882 375,900" fill="#48b1a5" opacity="0.200"/><polygon points="519,742 642,754 642,882 519,879" fill="#48bfb1" opacity="0.200"/><polygon points="642,754 790,762 790,889 642,880" fill="#52b4a2" opacity="0.200"/><polygon points="790,762 921,743 921,878 790,900" fill="#4cbea8" opacity="0.200"/><polygon points="921,743 1047,781 1047,889 921,900" fill="#53b9b1" opacity="0.200"/><polygon points="1047,781 1138,763 1138,900 1047,898" fill="#54bfb0" opacity="0.200"/><polygon points="1138,763 1313,746 1313,877 1138,900" fill="#57b0ac" opacity="0.200"/><polygon points="1313,746 1406,758 1406,900 1313,883" fill="#47b4a4" opacity="0.200"/><polygon points="1406,758 1527,747 1527,889 1406,882" fill="#52b3aa" opacity="0.200"/><polygon points="1527,747 1600,749 1600,893 1527,900" fill="#53afa8" opacity="0.200"/><polygon points="0,809 160,819 160,900 0,900" fill="#3e8579" opacity="0.180"/><polygon points="160,819 341,802 341,900 160,885" fill="#428a75" opacity="0.180"/><polygon points="341,802 523,831 523,880 341,890" fill="#409375" opacity="0.180"/><polygon points="523,831 693,817 693,900 523,891" fill="#2e8882" opacity="0.180"/><polygon points="693,817 827,838 827,892 693,900" fill="#3c9183" opacity="0.180"/><polygon points="827,838 990,824 990,880 827,900" fill="#309179" opacity="0.180"/><polygon points="990,824 1085,800 1085,894 990,900" fill="#428574" opacity="0.180"/><polygon points="1085,800 1188,842 1188,900 1085,900" fill="#3b8780" opacity="0.180"/><polygon points="1188,842 1300,800 1300,900 1188,898" fill="#3b8d7e" opacity="0.180"/><polygon points="1300,800 1392,827 1392,900 1300,891" fill="#318d80" opacity="0.180"/><polygon points="1392,827 1575,844 1575,900 1392,883" fill="#3c8c84" opacity="0.180"/><polygon points="1575,844 1600,809 1600,900 1575,892" fill="#408e76" opacity="0.180"/></g></svg>