<svg xmlns="http://www.w3.org/2000/svg" preserveAspectRatio="xMidYMid slice" viewBox="0 0 1600 900" role="img" aria-label="Setara branded teal day sky"><defs><linearGradient id="bg" x1="0" y1="0" x2="0" y2="1"><stop offset="0%" stop-color="#9af0f2"/><stop offset="46%" stop-color="#4dc6c1"/><stop offset="100%" stop-color="#92e8d4"/></linearGradient></defs><rect width="1600" height="900" fill="url(#bg)"/><g stroke="#e6fffb" stroke-opacity=".13" stroke-width="1.0" stroke-linejoin="round"><polygon points="0,0 92,0 0,53" fill="#b6f3f7" opacity="0.800"/><polygon points="92,0 141,114 0,53" fill="#a1edf5" opacity="0.940"/><polygon points="92,0 267,0 212,96" fill="#9afafd" opacity="0.940"/><polygon points="92,0 212,96 141,114" fill="#a6e9ea" opacity="0.800"/><polygon points="267,0 348,0 359,77" fill="#a0ece5" opacity="0.940"/><polygon points="267,0 359,77 212,96" fill="#a9e6fd" opacity="0.940"/><polygon points="348,0 438,0 359,77" fill="#9efde4" opacity="0.940"/><polygon points="438,0 482,64 359,77" fill="#adeaf8" opacity="0.940"/><polygon points="438,0 601,0 541,54" fill="#b0eee9" opacity="0.940"/><polygon points="438,0 541,54 482,64" fill="#a6f6f8" opacity="0.800"/><polygon points="601,0 723,0 541,54" fill="#aef3fb" opacity="0.940"/><polygon points="723,0 669,104 541,54" fill="#b5e6ea" opacity="0.940"/><polygon points="723,0 783,0 669,104" fill="#a1e4f4" opacity="0.800"/><polygon points="783,0 824,76 669,104" fill="#a0f4f5" opacity="0.800"/><polygon points="783,0 923,0 941,115" fill="#9af9e7" opacity="0.800"/><polygon points="783,0 941,115 824,76" fill="#aff3e8" opacity="0.940"/><polygon points="923,0 1026,0 1007,110" fill="#afe9eb" opacity="0.940"/><polygon points="923,0 1007,110 941,115" fill="#b1f8ea" opacity="0.940"/><polygon points="1026,0 1182,0 1182,100" fill="#b5e5fb" opacity="0.940"/><polygon points="1026,0 1182,100 1007,110" fill="#b0eef7" opacity="0.940"/><polygon points="1182,0 1271,0 1182,100" fill="#b6eaf0" opacity="0.940"/><polygon points="1271,0 1297,109 1182,100" fill="#9febfd" opacity="0.940"/><polygon points="1271,0 1403,0 1297,109" fill="#9dfbff" opacity="0.940"/><polygon points="1403,0 1339,79 1297,109" fill="#a1e6f7" opacity="0.940"/><polygon points="1403,0 1520,0 1339,79" fill="#acecee" opacity="0.940"/><polygon points="1520,0 1524,59 1339,79" fill="#a0faff" opacity="0.940"/><polygon points="1520,0 1600,0 1524,59" fill="#b0fdff" opacity="0.800"/><polygon points="1600,0 1600,90 1524,59" fill="#a2efee" opacity="0.940"/><polygon points="0,53 141,114 98,195" fill="#a1eeee" opacity="0.940"/><polygon points="0,53 98,195 0,178" fill="#adfbfb" opacity="0.940"/><polygon points="141,114 212,96 98,195" fill="#abfaef" opacity="0.940"/><polygon points="212,96 243,185 98,195" fill="#9af4ed" opacity="0.940"/><polygon points="212,96 359,77 243,185" fill="#a7fffe" opacity="0.940"/><polygon points="359,77 353,147 243,185" fill="#9debea" opacity="0.940"/><polygon points="359,77 482,64 438,176" fill="#b6f3f9" opacity="0.940"/><polygon points="359,77 438,176 353,147" fill="#aff8e9" opacity="0.940"/><polygon points="482,64 541,54 557,139" fill="#acedf9" opacity="0.940"/><polygon points="482,64 557,139 438,176" fill="#abf1e8" opacity="0.940"/><polygon points="541,54 669,104 557,139" fill="#adf2e9" opacity="0.940"/><polygon points="669,104 721,160 557,139" fill="#aae6ec" opacity="0.940"/><polygon points="669,104 824,76 721,160" fill="#aaffea" opacity="0.940"/><polygon points="824,76 840,167 721,160" fill="#9aecee" opacity="0.940"/><polygon points="824,76 941,115 929,146" fill="#abecfa" opacity="0.940"/><polygon points="824,76 929,146 840,167" fill="#afeeeb" opacity="0.940"/><polygon points="941,115 1007,110 1060,186" fill="#a1fff3" opacity="0.940"/><polygon points="941,115 1060,186 929,146" fill="#abf2ef" opacity="0.940"/><polygon points="1007,110 1182,100 1137,170" fill="#a6e5ed" opacity="0.940"/><polygon points="1007,110 1137,170 1060,186" fill="#9df6fd" opacity="0.800"/><polygon points="1182,100 1297,109 1277,198" fill="#a7ebf5" opacity="0.800"/><polygon points="1182,100 1277,198 1137,170" fill="#b7f7fe" opacity="0.940"/><polygon points="1297,109 1339,79 1388,195" fill="#9fe7ff" opacity="0.940"/><polygon points="1297,109 1388,195 1277,198" fill="#9df4fe" opacity="0.940"/><polygon points="1339,79 1524,59 1472,180" fill="#a8fbfa" opacity="0.940"/><polygon points="1339,79 1472,180 1388,195" fill="#a6f0f2" opacity="0.940"/><polygon points="1524,59 1600,90 1472,180" fill="#acf0f1" opacity="0.800"/><polygon points="1600,90 1600,161 1472,180" fill="#a2ffeb" opacity="0.800"/><polygon points="0,178 98,195 150,231" fill="#9ff2f6" opacity="0.940"/><polygon points="0,178 150,231 0,237" fill="#9afcfa" opacity="0.940"/><polygon points="98,195 243,185 150,231" fill="#adfdea" opacity="0.940"/><polygon points="243,185 257,258 150,231" fill="#a7e7f6" opacity="0.940"/><polygon points="243,185 353,147 370,217" fill="#b6f8fb" opacity="0.940"/><polygon points="243,185 370,217 257,258" fill="#b7ffe3" opacity="0.940"/><polygon points="353,147 438,176 370,217" fill="#aceaf9" opacity="0.940"/><polygon points="438,176 467,226 370,217" fill="#9ee3f6" opacity="0.940"/><polygon points="438,176 557,139 467,226" fill="#ade5eb" opacity="0.940"/><polygon points="557,139 591,233 467,226" fill="#b3fae0" opacity="0.940"/><polygon points="557,139 721,160 685,220" fill="#a5e3e0" opacity="0.940"/><polygon points="557,139 685,220 591,233" fill="#abe6f6" opacity="0.940"/><polygon points="721,160 840,167 826,260" fill="#a2fcf5" opacity="0.940"/><polygon points="721,160 826,260 685,220" fill="#9ceee4" opacity="0.940"/><polygon points="840,167 929,146 826,260" fill="#b2ebe7" opacity="0.800"/><polygon points="929,146 906,264 826,260" fill="#a9fde6" opacity="0.940"/><polygon points="929,146 1060,186 1011,238" fill="#a1f9fc" opacity="0.940"/><polygon points="929,146 1011,238 906,264" fill="#a7e7df" opacity="0.940"/><polygon points="1060,186 1137,170 1143,268" fill="#aaeef7" opacity="0.940"/><polygon points="1060,186 1143,268 1011,238" fill="#a2f5df" opacity="0.800"/><polygon points="1137,170 1277,198 1241,231" fill="#99e8f7" opacity="0.940"/><polygon points="1137,170 1241,231 1143,268" fill="#afe3fa" opacity="0.940"/><polygon points="1277,198 1388,195 1241,231" fill="#a5ffeb" opacity="0.800"/><polygon points="1388,195 1359,277 1241,231" fill="#ade3e2" opacity="0.940"/><polygon points="1388,195 1472,180 1499,228" fill="#9dfdfd" opacity="0.940"/><polygon points="1388,195 1499,228 1359,277" fill="#b4e9f4" opacity="0.940"/><polygon points="1472,180 1600,161 1499,228" fill="#a6fce2" opacity="0.940"/><polygon points="1600,161 1600,229 1499,228" fill="#abf0e5" opacity="0.940"/><polygon points="0,237 150,231 0,354" fill="#98dbf0" opacity="0.940"/><polygon points="150,231 142,322 0,354" fill="#88e4de" opacity="0.940"/><polygon points="150,231 257,258 190,303" fill="#92f2e9" opacity="0.940"/><polygon points="150,231 190,303 142,322" fill="#87f3e9" opacity="0.800"/><polygon points="257,258 370,217 190,303" fill="#85ecdc" opacity="0.940"/><polygon points="370,217 333,342 190,303" fill="#87edd8" opacity="0.940"/><polygon points="370,217 467,226 333,342" fill="#8beeed" opacity="0.940"/><polygon points="467,226 452,312 333,342" fill="#8bdef0" opacity="0.800"/><polygon points="467,226 591,233 452,312" fill="#91ecf2" opacity="0.940"/><polygon points="591,233 545,308 452,312" fill="#8ee8df" opacity="0.940"/><polygon points="591,233 685,220 545,308" fill="#98ecf3" opacity="0.940"/><polygon points="685,220 665,293 545,308" fill="#82ebd7" opacity="0.940"/><polygon points="685,220 826,260 665,293" fill="#81e3e9" opacity="0.940"/><polygon points="826,260 813,328 665,293" fill="#95f2d6" opacity="0.800"/><polygon points="826,260 906,264 813,328" fill="#92e4e0" opacity="0.940"/><polygon points="906,264 914,327 813,328" fill="#91f0f0" opacity="0.940"/><polygon points="906,264 1011,238 1045,346" fill="#81eaec" opacity="0.940"/><polygon points="906,264 1045,346 914,327" fill="#84f1d6" opacity="0.940"/><polygon points="1011,238 1143,268 1134,348" fill="#99e2d6" opacity="0.940"/><polygon points="1011,238 1134,348 1045,346" fill="#9ae4ec" opacity="0.940"/><polygon points="1143,268 1241,231 1134,348" fill="#81f6da" opacity="0.940"/><polygon points="1241,231 1241,331 1134,348" fill="#8df7ed" opacity="0.940"/><polygon points="1241,231 1359,277 1356,295" fill="#81f9de" opacity="0.800"/><polygon points="1241,231 1356,295 1241,331" fill="#98f0f3" opacity="0.940"/><polygon points="1359,277 1499,228 1356,295" fill="#8cefe2" opacity="0.940"/><polygon points="1499,228 1505,317 1356,295" fill="#96e4e7" opacity="0.940"/><polygon points="1499,228 1600,229 1505,317" fill="#8df7da" opacity="0.940"/><polygon points="1600,229 1600,352 1505,317" fill="#9bedd7" opacity="0.940"/><polygon points="0,354 142,322 0,401" fill="#82e9e5" opacity="0.940"/><polygon points="142,322 103,408 0,401" fill="#80ead2" opacity="0.940"/><polygon points="142,322 190,303 200,396" fill="#8eece1" opacity="0.940"/><polygon points="142,322 200,396 103,408" fill="#82ebdc" opacity="0.940"/><polygon points="190,303 333,342 200,396" fill="#9af3ef" opacity="0.940"/><polygon points="333,342 352,435 200,396" fill="#9ddee6" opacity="0.940"/><polygon points="333,342 452,312 352,435" fill="#94e7f0" opacity="0.940"/><polygon points="452,312 434,375 352,435" fill="#98e0dd" opacity="0.940"/><polygon points="452,312 545,308 434,375" fill="#8cedde" opacity="0.940"/><polygon points="545,308 563,410 434,375" fill="#90f3e9" opacity="0.800"/><polygon points="545,308 665,293 563,410" fill="#9decd6" opacity="0.940"/><polygon points="665,293 698,403 563,410" fill="#83e9e6" opacity="0.940"/><polygon points="665,293 813,328 783,429" fill="#97efed" opacity="0.940"/><polygon points="665,293 783,429 698,403" fill="#8fecda" opacity="0.940"/><polygon points="813,328 914,327 783,429" fill="#95dfed" opacity="0.940"/><polygon points="914,327 904,395 783,429" fill="#9de7e3" opacity="0.940"/><polygon points="914,327 1045,346 904,395" fill="#9be2dd" opacity="0.940"/><polygon points="1045,346 998,390 904,395" fill="#9be7db" opacity="0.940"/><polygon points="1045,346 1134,348 1163,389" fill="#95f8e0" opacity="0.940"/><polygon points="1045,346 1163,389 998,390" fill="#8bece2" opacity="0.940"/><polygon points="1134,348 1241,331 1163,389" fill="#87dcda" opacity="0.940"/><polygon points="1241,331 1237,410 1163,389" fill="#8ee5ec" opacity="0.940"/><polygon points="1241,331 1356,295 1351,398" fill="#82eae1" opacity="0.940"/><polygon points="1241,331 1351,398 1237,410" fill="#89f1e5" opacity="0.940"/><polygon points="1356,295 1505,317 1351,398" fill="#9aedd9" opacity="0.940"/><polygon points="1505,317 1453,399 1351,398" fill="#8ff9dd" opacity="0.940"/><polygon points="1505,317 1600,352 1453,399" fill="#7ff9e6" opacity="0.940"/><polygon points="1600,352 1600,393 1453,399" fill="#8edee7" opacity="0.940"/><polygon points="0,401 103,408 131,508" fill="#94f2e1" opacity="0.940"/><polygon points="0,401 131,508 0,474" fill="#8eebe9" opacity="0.940"/><polygon points="103,408 200,396 250,466" fill="#89e2e0" opacity="0.940"/><polygon points="103,408 250,466 131,508" fill="#89f2e0" opacity="0.940"/><polygon points="200,396 352,435 250,466" fill="#8adde4" opacity="0.940"/><polygon points="352,435 346,474 250,466" fill="#8defdc" opacity="0.940"/><polygon points="352,435 434,375 476,515" fill="#87efd2" opacity="0.940"/><polygon points="352,435 476,515 346,474" fill="#87dae3" opacity="0.940"/><polygon points="434,375 563,410 562,474" fill="#7eeed5" opacity="0.800"/><polygon points="434,375 562,474 476,515" fill="#7ef0ea" opacity="0.940"/><polygon points="563,410 698,403 562,474" fill="#96f0d2" opacity="0.800"/><polygon points="698,403 647,490 562,474" fill="#80e9d3" opacity="0.940"/><polygon points="698,403 783,429 834,492" fill="#83f6ea" opacity="0.940"/><polygon points="698,403 834,492 647,490" fill="#8cdaec" opacity="0.940"/><polygon points="783,429 904,395 945,476" fill="#84daee" opacity="0.940"/><polygon points="783,429 945,476 834,492" fill="#98dee6" opacity="0.940"/><polygon points="904,395 998,390 945,476" fill="#98f1d6" opacity="0.940"/><polygon points="998,390 1050,482 945,476" fill="#90dfd6" opacity="0.940"/><polygon points="998,390 1163,389 1050,482" fill="#8fefea" opacity="0.940"/><polygon points="1163,389 1111,468 1050,482" fill="#9ce1d6" opacity="0.940"/><polygon points="1163,389 1237,410 1111,468" fill="#95e3d1" opacity="0.800"/><polygon points="1237,410 1288,482 1111,468" fill="#8edfdb" opacity="0.940"/><polygon points="1237,410 1351,398 1387,460" fill="#91f3d3" opacity="0.940"/><polygon points="1237,410 1387,460 1288,482" fill="#8adbef" opacity="0.940"/><polygon points="1351,398 1453,399 1387,460" fill="#8ee6ec" opacity="0.800"/><polygon points="1453,399 1478,521 1387,460" fill="#7ff4df" opacity="0.940"/><polygon points="1453,399 1600,393 1600,518" fill="#8cefe7" opacity="0.800"/><polygon points="1453,399 1600,518 1478,521" fill="#87dae2" opacity="0.940"/><polygon points="0,474 131,508 0,559" fill="#9be5eb" opacity="0.940"/><polygon points="131,508 134,571 0,559" fill="#93f2d1" opacity="0.940"/><polygon points="131,508 250,466 223,551" fill="#84f4e9" opacity="0.940"/><polygon points="131,508 223,551 134,571" fill="#84efe2" opacity="0.940"/><polygon points="250,466 346,474 326,572" fill="#84f6ed" opacity="0.940"/><polygon points="250,466 326,572 223,551" fill="#86f4de" opacity="0.940"/><polygon points="346,474 476,515 487,549" fill="#80e0d2" opacity="0.940"/><polygon points="346,474 487,549 326,572" fill="#90e6dd" opacity="0.800"/><polygon points="476,515 562,474 487,549" fill="#91efd8" opacity="0.940"/><polygon points="562,474 544,554 487,549" fill="#82dfea" opacity="0.800"/><polygon points="562,474 647,490 672,558" fill="#8aeee1" opacity="0.940"/><polygon points="562,474 672,558 544,554" fill="#85e9d8" opacity="0.940"/><polygon points="647,490 834,492 672,558" fill="#88e1cf" opacity="0.940"/><polygon points="834,492 768,561 672,558" fill="#9bdae6" opacity="0.940"/><polygon points="834,492 945,476 924,568" fill="#8bddd4" opacity="0.940"/><polygon points="834,492 924,568 768,561" fill="#96d9dc" opacity="0.940"/><polygon points="945,476 1050,482 924,568" fill="#85dce8" opacity="0.800"/><polygon points="1050,482 1042,556 924,568" fill="#9bf2d4" opacity="0.940"/><polygon points="1050,482 1111,468 1146,599" fill="#96f4d2" opacity="0.940"/><polygon points="1050,482 1146,599 1042,556" fill="#83ead6" opacity="0.940"/><polygon points="1111,468 1288,482 1252,584" fill="#85e3e4" opacity="0.940"/><polygon points="1111,468 1252,584 1146,599" fill="#9af7e6" opacity="0.940"/><polygon points="1288,482 1387,460 1252,584" fill="#8bf4cf" opacity="0.940"/><polygon points="1387,460 1364,596 1252,584" fill="#89f4e1" opacity="0.940"/><polygon points="1387,460 1478,521 1476,565" fill="#92dadd" opacity="0.940"/><polygon points="1387,460 1476,565 1364,596" fill="#85d9ce" opacity="0.940"/><polygon points="1478,521 1600,518 1600,600" fill="#7fe9e7" opacity="0.940"/><polygon points="1478,521 1600,600 1476,565" fill="#76e2dc" opacity="0.940"/><polygon points="0,559 134,571 0,647" fill="#8df0e3" opacity="0.940"/><polygon points="134,571 124,634 0,647" fill="#77dde0" opacity="0.800"/><polygon points="134,571 223,551 194,664" fill="#7ff2df" opacity="0.800"/><polygon points="134,571 194,664 124,634" fill="#8ed7d3" opacity="0.940"/><polygon points="223,551 326,572 347,683" fill="#7ee8d8" opacity="0.940"/><polygon points="223,551 347,683 194,664" fill="#73e6db" opacity="0.940"/><polygon points="326,572 487,549 347,683" fill="#7fe3ca" opacity="0.800"/><polygon points="487,549 485,632 347,683" fill="#89d8c8" opacity="0.940"/><polygon points="487,549 544,554 485,632" fill="#76e1dd" opacity="0.940"/><polygon points="544,554 607,627 485,632" fill="#76d7e1" opacity="0.940"/><polygon points="544,554 672,558 607,627" fill="#7eefd7" opacity="0.940"/><polygon points="672,558 704,648 607,627" fill="#84dbd8" opacity="0.940"/><polygon points="672,558 768,561 704,648" fill="#90d5c9" opacity="0.800"/><polygon points="768,561 762,678 704,648" fill="#8fe1cd" opacity="0.940"/><polygon points="768,561 924,568 762,678" fill="#80d8da" opacity="0.940"/><polygon points="924,568 877,635 762,678" fill="#8fdad2" opacity="0.940"/><polygon points="924,568 1042,556 877,635" fill="#75d8d4" opacity="0.940"/><polygon points="1042,556 1027,688 877,635" fill="#91e3ca" opacity="0.940"/><polygon points="1042,556 1146,599 1027,688" fill="#90eed4" opacity="0.940"/><polygon points="1146,599 1105,628 1027,688" fill="#8dedda" opacity="0.940"/><polygon points="1146,599 1252,584 1105,628" fill="#8de6cd" opacity="0.940"/><polygon points="1252,584 1277,671 1105,628" fill="#8af1da" opacity="0.940"/><polygon points="1252,584 1364,596 1277,671" fill="#76dde0" opacity="0.940"/><polygon points="1364,596 1338,677 1277,671" fill="#7feccc" opacity="0.940"/><polygon points="1364,596 1476,565 1338,677" fill="#79d5c8" opacity="0.800"/><polygon points="1476,565 1471,678 1338,677" fill="#78dfd9" opacity="0.940"/><polygon points="1476,565 1600,600 1600,669" fill="#84dddf" opacity="0.940"/><polygon points="1476,565 1600,669 1471,678" fill="#73f1cc" opacity="0.940"/><polygon points="0,647 124,634 106,743" fill="#7aecd3" opacity="0.940"/><polygon points="0,647 106,743 0,731" fill="#8cd7ca" opacity="0.940"/><polygon points="124,634 194,664 106,743" fill="#89e0c9" opacity="0.940"/><polygon points="194,664 212,737 106,743" fill="#7ee0dd" opacity="0.940"/><polygon points="194,664 347,683 328,716" fill="#80d4c7" opacity="0.940"/><polygon points="194,664 328,716 212,737" fill="#88efcd" opacity="0.940"/><polygon points="347,683 485,632 442,738" fill="#81e4c7" opacity="0.940"/><polygon points="347,683 442,738 328,716" fill="#7aead7" opacity="0.940"/><polygon points="485,632 607,627 442,738" fill="#8becda" opacity="0.940"/><polygon points="607,627 541,716 442,738" fill="#8fead8" opacity="0.940"/><polygon points="607,627 704,648 541,716" fill="#7df0c4" opacity="0.940"/><polygon points="704,648 716,735 541,716" fill="#7fdfc3" opacity="0.940"/><polygon points="704,648 762,678 716,735" fill="#84deca" opacity="0.800"/><polygon points="762,678 797,767 716,735" fill="#91d5d9" opacity="0.940"/><polygon points="762,678 877,635 898,728" fill="#80e9cf" opacity="0.940"/><polygon points="762,678 898,728 797,767" fill="#84e0dd" opacity="0.940"/><polygon points="877,635 1027,688 898,728" fill="#7be1dd" opacity="0.940"/><polygon points="1027,688 999,705 898,728" fill="#7be4d1" opacity="0.940"/><polygon points="1027,688 1105,628 999,705" fill="#8dd5e2" opacity="0.940"/><polygon points="1105,628 1125,730 999,705" fill="#8dedc6" opacity="0.940"/><polygon points="1105,628 1277,671 1125,730" fill="#80f1df" opacity="0.940"/><polygon points="1277,671 1247,736 1125,730" fill="#8ad4da" opacity="0.940"/><polygon points="1277,671 1338,677 1247,736" fill="#88efdb" opacity="0.940"/><polygon points="1338,677 1331,728 1247,736" fill="#83e0d9" opacity="0.940"/><polygon points="1338,677 1471,678 1331,728" fill="#7aefc8" opacity="0.940"/><polygon points="1471,678 1502,753 1331,728" fill="#8bedd0" opacity="0.940"/><polygon points="1471,678 1600,669 1502,753" fill="#7fdec6" opacity="0.940"/><polygon points="1600,669 1600,733 1502,753" fill="#8eeed5" opacity="0.940"/><polygon points="0,731 106,743 0,805" fill="#74e7c7" opacity="0.940"/><polygon points="106,743 125,846 0,805" fill="#84e0cf" opacity="0.940"/><polygon points="106,743 212,737 125,846" fill="#8ad6d2" opacity="0.940"/><polygon points="212,737 254,785 125,846" fill="#72dbc5" opacity="0.940"/><polygon points="212,737 328,716 254,785" fill="#73d3db" opacity="0.940"/><polygon points="328,716 371,786 254,785" fill="#74e9d7" opacity="0.800"/><polygon points="328,716 442,738 472,820" fill="#76e6d9" opacity="0.940"/><polygon points="328,716 472,820 371,786" fill="#72e3c8" opacity="0.940"/><polygon points="442,738 541,716 595,792" fill="#74dfdb" opacity="0.940"/><polygon points="442,738 595,792 472,820" fill="#84e8d0" opacity="0.940"/><polygon points="541,716 716,735 595,792" fill="#86ebc3" opacity="0.800"/><polygon points="716,735 712,814 595,792" fill="#88e8ca" opacity="0.940"/><polygon points="716,735 797,767 712,814" fill="#87d8df" opacity="0.940"/><polygon points="797,767 802,837 712,814" fill="#84e8c4" opacity="0.940"/><polygon points="797,767 898,728 802,837" fill="#8adbde" opacity="0.940"/><polygon points="898,728 886,835 802,837" fill="#8cf0d7" opacity="0.940"/><polygon points="898,728 999,705 999,838" fill="#81edd8" opacity="0.940"/><polygon points="898,728 999,838 886,835" fill="#8ed3d4" opacity="0.940"/><polygon points="999,705 1125,730 1113,847" fill="#88f1c8" opacity="0.940"/><polygon points="999,705 1113,847 999,838" fill="#8cecdb" opacity="0.940"/><polygon points="1125,730 1247,736 1277,813" fill="#83e2da" opacity="0.940"/><polygon points="1125,730 1277,813 1113,847" fill="#84e9dc" opacity="0.800"/><polygon points="1247,736 1331,728 1277,813" fill="#79dedb" opacity="0.940"/><polygon points="1331,728 1377,785 1277,813" fill="#76dfcc" opacity="0.940"/><polygon points="1331,728 1502,753 1458,821" fill="#8ae1c8" opacity="0.940"/><polygon points="1331,728 1458,821 1377,785" fill="#7de6da" opacity="0.940"/><polygon points="1502,753 1600,733 1600,785" fill="#8fe6c6" opacity="0.940"/><polygon points="1502,753 1600,785 1458,821" fill="#7defc1" opacity="0.940"/><polygon points="0,805 125,846 115,900" fill="#88ded0" opacity="0.940"/><polygon points="0,805 115,900 0,900" fill="#8ed7da" opacity="0.940"/><polygon points="125,846 254,785 115,900" fill="#7cddd6" opacity="0.940"/><polygon points="254,785 252,900 115,900" fill="#7de9d8" opacity="0.800"/><polygon points="254,785 371,786 368,900" fill="#8dd7ce" opacity="0.800"/><polygon points="254,785 368,900 252,900" fill="#89d4c1" opacity="0.940"/><polygon points="371,786 472,820 368,900" fill="#7cead3" opacity="0.940"/><polygon points="472,820 497,900 368,900" fill="#7fe3d1" opacity="0.940"/><polygon points="472,820 595,792 536,900" fill="#8cdacb" opacity="0.940"/><polygon points="472,820 536,900 497,900" fill="#7ae8bf" opacity="0.940"/><polygon points="595,792 712,814 669,900" fill="#75dfc3" opacity="0.800"/><polygon points="595,792 669,900 536,900" fill="#8ce2d9" opacity="0.940"/><polygon points="712,814 802,837 669,900" fill="#8dedca" opacity="0.940"/><polygon points="802,837 784,900 669,900" fill="#8cead8" opacity="0.940"/><polygon points="802,837 886,835 784,900" fill="#81dcc1" opacity="0.940"/><polygon points="886,835 900,900 784,900" fill="#72dbc4" opacity="0.940"/><polygon points="886,835 999,838 1038,900" fill="#80e3d7" opacity="0.940"/><polygon points="886,835 1038,900 900,900" fill="#85e0c8" opacity="0.940"/><polygon points="999,838 1113,847 1133,900" fill="#7ee9bf" opacity="0.940"/><polygon points="999,838 1133,900 1038,900" fill="#7fd6c9" opacity="0.940"/><polygon points="1113,847 1277,813 1133,900" fill="#8ce9cb" opacity="0.940"/><polygon points="1277,813 1266,900 1133,900" fill="#84eccd" opacity="0.940"/><polygon points="1277,813 1377,785 1266,900" fill="#76ecde" opacity="0.940"/><polygon points="1377,785 1373,900 1266,900" fill="#8ededc" opacity="0.940"/><polygon points="1377,785 1458,821 1514,900" fill="#83efdc" opacity="0.800"/><polygon points="1377,785 1514,900 1373,900" fill="#7ce6d4" opacity="0.940"/><polygon points="1458,821 1600,785 1514,900" fill="#85dec0" opacity="0.940"/><polygon points="1600,785 1600,900 1514,900" fill="#8ddeda" opacity="0.940"/></g><g stroke="#f4fffe" stroke-opacity=".09" stroke-width="0.9" stroke-linejoin="round"><polygon points="1361.5,317.3 1342.5,381.1 1262.5,378.3 1257.7,290.8" fill="#fffffd" opacity="0.144"/><polygon points="542.1,419.7 567.3,420.0 586.9,449.2 548.2,465.1 528.6,440.7" fill="#fffef5" opacity="0.216"/><polygon points="1076.3,461.4 1160.0,392.5 1242.1,424.4 1177.2,487.5" fill="#feffff" opacity="0.195"/><polygon points="1098.6,230.7 1115.0,255.4 1075.2,248.3" fill="#fbf5ff" opacity="0.209"/><polygon points="1109.4,351.1 1169.5,392.5 1093.6,417.7" fill="#ffffff" opacity="0.183"/><polygon points="679.8,442.1 803.9,469.6 711.3,543.3" fill="#fcfdfc" opacity="0.225"/><polygon points="616.0,389.6 663.0,463.4 584.4,477.0 544.7,413.7" fill="#ffffff" opacity="0.307"/><polygon points="983.9,409.7 869.2,399.6 962.6,325.0" fill="#f1feff" opacity="0.239"/><polygon points="756.3,368.9 736.5,415.8 658.1,397.7 658.2,356.0 729.0,304.9" fill="#fffcfe" opacity="0.170"/><polygon points="768.1,250.4 806.3,263.2 774.5,284.4" fill="#fbf8fd" opacity="0.261"/><polygon points="784.2,497.6 819.9,510.7 803.7,535.2 761.8,551.2 760.6,514.1" fill="#f2fdff" opacity="0.126"/><polygon points="964.4,503.7 956.5,549.8 885.1,532.8" fill="#f3fbff" opacity="0.172"/><polygon points="1201.6,275.2 1231.9,338.5 1189.8,372.4 1125.9,337.2" fill="#f8fffc" opacity="0.281"/><polygon points="786.6,225.2 724.8,184.5 763.7,160.7 814.5,179.0" fill="#f9fafe" opacity="0.337"/><polygon points="1279.2,240.8 1270.2,227.7 1272.4,213.7 1286.1,214.8 1297.9,229.5" fill="#f1ffff" opacity="0.257"/><polygon points="1199.5,473.1 1138.3,428.2 1212.0,374.9 1290.2,442.8" fill="#f8f5ff" opacity="0.228"/><polygon points="1354.4,368.1 1429.2,357.0 1453.4,426.9 1380.4,439.3 1345.4,408.3" fill="#fdf6ff" opacity="0.267"/><polygon points="643.2,184.8 628.5,276.3 549.0,222.0" fill="#ffffff" opacity="0.176"/><polygon points="467.4,248.6 526.8,245.9 529.5,287.3 474.8,300.0" fill="#fffff7" opacity="0.190"/><polygon points="1465.5,276.6 1458.7,347.3 1390.1,300.5 1393.3,250.4" fill="#eff6ff" opacity="0.201"/><polygon points="1061.8,368.7 1061.5,389.9 1022.3,412.2 1003.5,374.8 1039.2,356.9" fill="#fff8ff" opacity="0.221"/><polygon points="1364.2,409.6 1368.3,457.2 1312.1,464.9 1312.6,420.8" fill="#f4f9f8" opacity="0.306"/><polygon points="794.0,336.5 801.9,379.1 765.4,407.6 715.1,379.6 750.2,320.0" fill="#fffcf7" opacity="0.173"/><polygon points="1097.4,288.2 1123.0,227.1 1192.7,245.4 1182.0,296.1" fill="#fffafc" opacity="0.198"/><polygon points="846.9,455.5 869.6,456.3 893.1,488.5 863.4,498.3 832.0,484.3" fill="#f6fdf7" opacity="0.274"/><polygon points="636.4,265.8 636.5,302.2 574.2,303.5 579.4,256.9" fill="#f2fffa" opacity="0.202"/><polygon points="1273.4,271.1 1236.6,272.1 1243.7,217.1 1304.6,199.6 1317.3,250.4" fill="#fbfffb" opacity="0.196"/><polygon points="990.2,378.1 955.0,405.2 903.5,415.5 906.7,379.5 950.4,336.6" fill="#eff6fb" opacity="0.159"/><polygon points="1158.0,163.1 1104.7,251.8 1060.9,161.5" fill="#f2ffff" opacity="0.172"/><polygon points="1009.2,528.1 1026.4,461.7 1061.6,516.7" fill="#fef5f5" opacity="0.263"/><polygon points="1066.3,186.6 1062.8,197.8 1044.7,202.3 1036.9,190.8 1050.2,180.5" fill="#f1f8f4" opacity="0.100"/><polygon points="996.3,261.4 1052.2,237.8 1123.2,289.6 1087.3,338.5 993.0,334.1" fill="#fcffff" opacity="0.267"/><polygon points="1226.6,309.3 1203.3,274.3 1223.6,235.4 1266.0,254.2 1280.9,293.1" fill="#f3fcff" opacity="0.183"/><polygon points="824.0,297.2 716.2,236.6 823.7,182.9" fill="#f9fdfc" opacity="0.155"/><polygon points="1378.2,459.4 1324.5,397.2 1430.3,380.5" fill="#f7ffff" opacity="0.124"/><polygon points="550.8,426.1 491.0,441.9 485.5,402.9 529.8,393.8" fill="#f3ffff" opacity="0.178"/><polygon points="1145.2,217.9 1142.2,204.4 1160.7,203.5 1167.9,213.4 1161.2,225.0" fill="#feffff" opacity="0.320"/><polygon points="1075.6,396.8 1148.0,360.9 1192.1,451.7 1105.6,459.6" fill="#fafff8" opacity="0.241"/><polygon points="481.3,341.6 454.1,272.6 558.2,295.5" fill="#f3fcfb" opacity="0.306"/><polygon points="664.0,474.4 685.0,512.4 631.7,530.3 596.0,498.8 608.3,464.8" fill="#faf5fc" opacity="0.265"/><polygon points="1125.4,516.8 1031.3,499.3 1065.7,456.7 1126.9,458.4" fill="#f4f9ff" opacity="0.332"/><polygon points="660.3,462.6 633.3,457.3 640.6,430.4 668.2,434.4" fill="#fbfcff" opacity="0.125"/><polygon points="1357.7,226.3 1394.0,222.0 1419.1,267.4 1374.5,295.5 1330.2,260.1" fill="#ffffff" opacity="0.156"/><polygon points="961.1,355.0 966.4,317.7 1005.8,302.6 1001.6,337.3" fill="#fffdf8" opacity="0.254"/><polygon points="1147.3,508.9 1109.6,468.2 1165.8,462.4" fill="#fffdff" opacity="0.136"/><polygon points="1028.1,479.7 1073.0,460.7 1119.9,472.3 1098.5,510.3 1061.6,527.1" fill="#f8ffff" opacity="0.151"/><polygon points="525.1,519.8 531.5,433.9 620.9,438.8 642.4,509.2" fill="#f4fff7" opacity="0.236"/><polygon points="622.3,230.5 636.5,243.3 607.0,258.0" fill="#fffeff" opacity="0.263"/><polygon points="853.1,413.1 759.5,483.4 751.0,386.8 814.8,343.3" fill="#fff6ff" opacity="0.296"/><polygon points="1232.7,262.0 1249.5,280.3 1211.7,289.1 1204.8,266.7" fill="#fafffe" opacity="0.103"/><polygon points="615.2,373.6 677.0,324.2 760.9,359.5 692.1,439.7" fill="#f3f9ff" opacity="0.270"/><polygon points="608.7,379.2 691.6,369.9 666.5,431.6" fill="#f3f5f5" opacity="0.327"/><polygon points="638.1,381.1 632.6,337.9 702.8,345.1 700.5,384.2" fill="#fdfff7" opacity="0.162"/><polygon points="1151.8,359.3 1191.1,356.8 1209.8,385.8 1176.5,410.2 1134.3,388.6" fill="#f5ffff" opacity="0.152"/><polygon points="1224.5,216.6 1296.7,285.0 1196.8,319.1" fill="#fff8f6" opacity="0.167"/><polygon points="1184.2,257.4 1157.0,253.0 1172.3,228.1" fill="#effeff" opacity="0.164"/><polygon points="1218.4,221.2 1277.8,186.5 1343.8,262.1 1257.4,279.1" fill="#f2fffd" opacity="0.182"/><polygon points="1149.2,387.1 1170.9,399.5 1151.2,416.8 1133.6,414.8 1127.8,395.7" fill="#f3ffff" opacity="0.270"/><polygon points="1142.6,420.5 1143.3,391.3 1179.4,404.5 1171.1,434.7" fill="#fffffe" opacity="0.150"/><polygon points="1404.0,398.2 1326.3,423.5 1324.8,371.3" fill="#f3fffa" opacity="0.316"/><polygon points="960.3,355.4 1035.0,405.9 962.9,431.1 880.8,390.9" fill="#f3f9ff" opacity="0.161"/><polygon points="561.0,331.8 593.5,353.7 546.3,371.8 522.3,343.4" fill="#fbfdfc" opacity="0.215"/><polygon points="1062.0,329.2 1018.7,352.2 968.4,300.8 999.5,263.5 1062.7,281.6" fill="#fbfff4" opacity="0.292"/><polygon points="969.9,484.7 961.4,448.4 1031.0,424.6 1023.1,487.2" fill="#ffffff" opacity="0.182"/><polygon points="1128.6,521.3 1113.1,508.6 1129.3,499.1 1153.1,514.1" fill="#f4fffe" opacity="0.133"/><polygon points="1243.0,500.4 1268.0,458.5 1295.2,484.3" fill="#fff5fa" opacity="0.329"/><polygon points="1003.1,454.8 954.2,532.4 890.2,480.7 935.7,430.4" fill="#f2f7fc" opacity="0.251"/><polygon points="627.1,357.7 670.9,392.3 623.7,418.0 586.7,393.3" fill="#ffffff" opacity="0.117"/><polygon points="1351.9,387.0 1345.8,466.4 1263.9,468.6 1254.8,396.1 1314.5,342.2" fill="#f0ffff" opacity="0.299"/><polygon points="1088.8,216.5 1114.2,264.5 1058.0,288.5 1006.5,273.8 1018.6,225.5" fill="#f4fffb" opacity="0.161"/><polygon points="852.6,290.0 885.0,316.6 875.3,349.3 820.4,349.3 816.6,316.7" fill="#feffff" opacity="0.244"/><polygon points="1015.2,295.2 1036.0,329.6 1021.5,351.4 976.4,345.9 983.5,305.1" fill="#fafcf6" opacity="0.130"/><polygon points="450.1,409.4 501.9,383.0 512.4,421.6" fill="#dffdff" opacity="0.248"/><polygon points="869.7,397.5 909.6,333.6 963.4,395.2" fill="#eff5f9" opacity="0.141"/><polygon points="542.9,444.5 574.9,466.2 541.7,511.1 485.0,503.9 470.2,447.4" fill="#e2f8ef" opacity="0.276"/><polygon points="352.6,287.4 406.9,272.6 453.1,338.9 384.3,349.5" fill="#e3fcff" opacity="0.274"/><polygon points="771.5,478.7 798.3,393.0 901.8,430.7 848.3,496.5" fill="#ebf2fb" opacity="0.170"/><polygon points="879.7,502.2 834.3,519.8 824.8,491.7 841.4,460.9 889.5,465.5" fill="#eefffd" opacity="0.141"/><polygon points="954.2,322.5 982.5,324.8 984.6,340.4 965.1,345.9" fill="#effffb" opacity="0.187"/><polygon points="527.5,403.9 582.1,332.5 626.5,400.4" fill="#ebfffe" opacity="0.255"/><polygon points="598.3,454.4 476.7,540.8 462.3,419.3" fill="#eefffc" opacity="0.212"/><polygon points="560.0,421.1 564.1,461.0 526.3,486.2 502.1,426.4" fill="#e2fffa" opacity="0.236"/><polygon points="710.3,406.0 811.8,438.4 759.8,529.1" fill="#e4f6f0" opacity="0.242"/><polygon points="920.8,433.4 990.1,407.9 1022.1,487.1 905.3,513.6" fill="#eff6f3" opacity="0.127"/><polygon points="822.7,390.0 793.7,459.5 662.8,457.2 662.2,366.3 759.9,324.5" fill="#f2ffef" opacity="0.177"/><polygon points="995.1,344.0 1075.9,340.7 1058.5,429.1 985.9,419.0" fill="#e7faf3" opacity="0.335"/><polygon points="719.6,301.1 759.0,219.5 864.2,242.8 821.9,314.6" fill="#eff9f1" opacity="0.155"/><polygon points="626.3,493.3 610.1,518.8 575.1,503.6 594.3,473.8" fill="#ebf6f0" opacity="0.281"/><polygon points="888.3,364.5 891.8,395.1 872.1,403.7 835.8,389.8 849.8,360.9" fill="#f0f8f3" opacity="0.306"/><polygon points="1082.9,447.4 1024.6,391.4 1092.8,362.4" fill="#e7fff7" opacity="0.282"/><polygon points="531.3,464.6 514.2,447.5 526.0,436.2 557.2,440.3" fill="#f2f5f7" opacity="0.192"/><polygon points="579.7,431.0 621.0,469.3 580.9,506.0 508.3,508.1 532.4,445.8" fill="#e1f3fa" opacity="0.240"/><polygon points="643.0,389.9 545.4,384.3 556.1,328.9 637.2,299.4" fill="#e5fdfb" opacity="0.166"/><polygon points="724.7,485.7 636.2,546.4 581.5,470.5 637.0,419.4" fill="#f0f7fc" opacity="0.236"/><polygon points="700.7,414.0 751.7,459.2 652.5,466.8" fill="#edf4f8" opacity="0.276"/><polygon points="478.7,256.9 536.8,258.1 525.9,301.3 478.3,310.6" fill="#f2f2f9" opacity="0.160"/><polygon points="634.8,269.6 662.5,250.5 692.5,274.0 674.3,298.0" fill="#e2f8f3" opacity="0.184"/><polygon points="484.8,269.3 518.2,285.8 522.0,312.9 493.0,327.0 465.0,314.1" fill="#e2ffff" opacity="0.319"/><polygon points="1100.9,398.9 1001.1,482.6 984.7,361.4" fill="#e6f8ee" opacity="0.133"/><polygon points="629.8,360.1 721.6,415.4 634.3,495.1 573.6,402.5" fill="#effef7" opacity="0.135"/><polygon points="773.8,342.4 709.3,321.1 746.2,276.4 793.0,297.8" fill="#ecffef" opacity="0.108"/><polygon points="407.6,360.8 309.5,361.6 318.4,288.7 407.4,313.8" fill="#e1fffa" opacity="0.199"/><polygon points="526.4,257.0 593.2,280.8 568.5,337.9 507.7,307.7" fill="#eafef4" opacity="0.263"/><polygon points="899.4,257.0 904.9,268.9 891.1,286.6 876.5,268.6 885.9,248.4" fill="#ecf3fb" opacity="0.312"/><polygon points="1040.2,428.6 961.3,392.8 1006.0,307.3 1099.7,366.1" fill="#eafeff" opacity="0.137"/><polygon points="539.2,401.7 486.2,465.2 416.6,408.3 480.4,338.2" fill="#dff7ef" opacity="0.207"/><polygon points="716.7,521.3 646.8,501.4 631.2,422.3 750.9,447.8" fill="#edf2f7" opacity="0.302"/><polygon points="957.2,397.6 956.4,449.6 894.4,450.6 880.9,402.7" fill="#f2f4fb" opacity="0.163"/><polygon points="358.1,348.1 405.6,323.3 412.4,359.5 378.1,369.9" fill="#e7fdff" opacity="0.236"/><polygon points="549.6,265.6 512.4,280.9 503.3,250.4 538.8,235.0" fill="#e4fff8" opacity="0.191"/><polygon points="710.3,493.5 639.1,560.3 637.0,439.2" fill="#edffef" opacity="0.146"/><polygon points="747.8,340.9 711.6,302.5 784.0,307.4" fill="#dfffff" opacity="0.214"/><polygon points="542.3,235.4 601.5,198.2 648.7,257.5 553.6,279.1" fill="#e3f2f1" opacity="0.334"/><polygon points="414.5,367.1 369.7,419.8 286.7,410.6 299.2,345.3 363.6,330.0" fill="#dff4f7" opacity="0.241"/><polygon points="760.5,569.7 742.1,523.1 774.0,504.8 810.7,524.4" fill="#ecf9f2" opacity="0.284"/><polygon points="991.5,363.9 1008.6,419.7 938.2,457.1 908.0,381.1" fill="#eeffee" opacity="0.129"/><polygon points="648.8,397.0 639.1,364.7 678.4,350.7 694.5,382.3" fill="#f0f3f1" opacity="0.276"/><polygon points="452.5,510.0 456.3,472.8 501.6,488.9 486.4,528.2" fill="#e5fff9" opacity="0.277"/><polygon points="1032.6,287.9 1052.8,327.1 989.8,327.9 991.2,272.0" fill="#d5f2f5" opacity="0.146"/><polygon points="1290.8,305.4 1288.9,264.3 1330.0,277.8" fill="#d3edf5" opacity="0.234"/><polygon points="1466.2,381.6 1485.6,359.1 1529.6,367.1 1526.6,408.8 1487.9,426.0" fill="#d8f3f6" opacity="0.318"/><polygon points="1246.2,420.9 1167.8,374.3 1238.6,353.9" fill="#d1f7f4" opacity="0.285"/><polygon points="1198.0,343.8 1142.9,443.9 1084.5,388.2" fill="#def8f3" opacity="0.169"/><polygon points="1517.2,346.1 1434.7,361.5 1374.7,298.9 1465.5,278.5" fill="#cfeceb" opacity="0.283"/><polygon points="1069.5,370.0 1151.8,386.4 1168.4,433.9 1087.3,454.2 1025.5,427.1" fill="#ddf2f3" opacity="0.251"/><polygon points="1128.7,331.3 1090.6,389.5 1030.6,416.7 1002.5,340.9 1058.7,299.0" fill="#d9fef1" opacity="0.199"/><polygon points="1443.9,338.3 1530.3,380.8 1434.6,420.4" fill="#e2fff5" opacity="0.140"/><polygon points="1139.8,461.0 1111.7,442.4 1105.9,413.6 1146.0,407.7 1164.8,431.1" fill="#d2f0fd" opacity="0.188"/><polygon points="1220.6,276.5 1157.9,288.7 1135.6,234.5 1208.0,229.2" fill="#d7edfc" opacity="0.255"/><polygon points="1178.7,328.1 1078.0,362.7 1118.3,264.5" fill="#cff7f6" opacity="0.132"/><polygon points="1194.9,228.0 1208.0,302.0 1107.4,294.6 1081.1,233.2" fill="#ddf5fd" opacity="0.248"/><polygon points="1059.4,316.6 974.2,311.5 968.1,249.1 1044.0,221.8" fill="#d1f0ea" opacity="0.158"/><polygon points="1263.4,437.7 1209.2,436.1 1198.8,385.7 1253.6,381.0" fill="#d2f3f5" opacity="0.269"/><polygon points="984.4,313.3 967.7,276.4 997.3,255.3 1021.7,295.0" fill="#d0fde9" opacity="0.178"/><polygon points="1306.9,375.2 1251.8,291.2 1404.2,304.8" fill="#e2f5f4" opacity="0.263"/><polygon points="1213.8,230.1 1201.2,274.3 1161.3,274.9 1157.8,228.9" fill="#d0ffeb" opacity="0.258"/><polygon points="1075.8,307.2 1107.8,265.3 1160.3,278.9 1139.1,308.8" fill="#d9eff0" opacity="0.168"/><polygon points="1050.2,370.8 999.6,415.5 987.9,349.7" fill="#d7edfb" opacity="0.248"/><polygon points="1412.5,398.9 1405.3,423.6 1381.5,415.3 1387.4,391.9" fill="#def4f4" opacity="0.176"/><polygon points="1028.5,318.4 1107.4,257.9 1180.9,295.0 1115.4,344.4" fill="#dafef3" opacity="0.216"/><polygon points="1058.7,335.5 991.5,301.5 1090.2,243.2" fill="#e1feed" opacity="0.298"/><polygon points="1379.2,434.7 1349.1,393.3 1410.2,407.1" fill="#e1f9f4" opacity="0.194"/><polygon points="1055.6,373.5 1027.8,324.8 1071.4,283.8 1145.0,324.7 1103.7,375.9" fill="#e2f7fc" opacity="0.267"/><polygon points="1372.4,343.9 1422.5,361.7 1455.4,402.3 1399.6,434.2 1334.9,408.8" fill="#def9fd" opacity="0.151"/><polygon points="1077.8,308.8 1076.4,286.8 1103.6,282.2 1111.8,302.4 1096.6,310.1" fill="#cff1f3" opacity="0.325"/><polygon points="1155.7,381.7 1169.8,445.4 1087.4,463.2 1072.8,381.6" fill="#e2f5f8" opacity="0.316"/><polygon points="312.6,377.7 337.0,355.4 376.1,375.3 345.7,402.2" fill="#c2f0f4" opacity="0.292"/><polygon points="271.5,376.3 199.2,376.0 192.8,300.6 258.3,283.6 293.9,333.6" fill="#bfe9ec" opacity="0.118"/><polygon points="101.1,300.3 167.8,291.7 214.1,310.5 212.7,359.0 129.7,362.0" fill="#d2e3ea" opacity="0.207"/><polygon points="321.3,353.3 344.4,335.7 382.2,351.2 348.2,379.1" fill="#bfe7e5" opacity="0.235"/><polygon points="318.1,357.3 260.0,374.3 239.0,339.4 251.4,301.2 320.7,313.6" fill="#cbf5f4" opacity="0.216"/><polygon points="143.3,343.6 183.9,358.9 168.5,392.6 132.2,374.1" fill="#d2e7ef" opacity="0.176"/><polygon points="-3.9,276.5 54.1,198.0 143.3,243.1 84.9,297.9" fill="#c8eae2" opacity="0.289"/><polygon points="326.7,310.4 267.8,395.9 123.8,372.2 184.8,272.6" fill="#c0f6e3" opacity="0.156"/><polygon points="291.2,400.3 225.1,426.0 206.9,378.6 239.6,334.2 290.5,366.6" fill="#c7eaf0" opacity="0.298"/><polygon points="125.2,247.9 157.7,224.9 185.8,255.7 184.2,283.5 141.4,275.1" fill="#c6ecf4" opacity="0.222"/><polygon points="362.9,331.7 360.1,371.5 307.8,379.1 301.9,333.8" fill="#c4eef0" opacity="0.160"/><polygon points="162.6,269.0 182.8,347.9 70.6,347.7 65.4,248.1" fill="#cfefe4" opacity="0.157"/><polygon points="203.6,263.0 340.9,252.4 264.0,330.9" fill="#cdf1f5" opacity="0.255"/><polygon points="379.4,364.6 334.8,352.6 360.0,316.1 400.1,322.3" fill="#ccf5f5" opacity="0.177"/><polygon points="260.9,372.9 271.9,327.2 334.1,356.5" fill="#ceeaf3" opacity="0.251"/><polygon points="97.0,353.3 74.5,388.6 31.4,377.2 41.3,337.6 78.6,324.2" fill="#c6f4e8" opacity="0.336"/><polygon points="77.6,224.3 129.1,206.3 155.0,243.6 99.2,268.0" fill="#cff4f0" opacity="0.210"/><polygon points="229.7,432.4 213.1,369.8 270.2,322.1 302.5,400.3" fill="#cceef2" opacity="0.219"/><polygon points="378.7,356.2 269.8,411.8 236.2,330.3 321.0,262.6" fill="#ccf7e6" opacity="0.150"/><polygon points="126.5,326.1 93.1,292.3 154.1,264.3 167.3,313.7" fill="#c1ecf5" opacity="0.297"/><polygon points="135.5,285.1 173.7,224.9 204.1,273.5" fill="#c1e5e3" opacity="0.208"/><polygon points="407.4,286.8 403.0,316.9 370.5,327.8 362.1,300.4 370.6,287.9" fill="#d3e5f4" opacity="0.231"/><polygon points="78.8,380.8 38.7,392.4 29.8,355.1" fill="#bfeced" opacity="0.174"/><polygon points="47.5,422.2 33.9,377.5 80.7,357.8 87.9,404.8" fill="#d1f6f1" opacity="0.232"/><polygon points="249.2,279.4 269.9,264.9 291.2,278.7 279.6,300.3 257.8,293.4" fill="#cfede8" opacity="0.234"/><polygon points="109.9,274.0 107.0,348.2 37.5,331.6" fill="#c2eaef" opacity="0.278"/><polygon points="194.1,266.2 203.1,236.6 219.0,229.4 245.6,247.0 230.6,266.4" fill="#c2e3e5" opacity="0.335"/><polygon points="411.2,301.4 340.7,300.9 376.5,253.7" fill="#cae3ee" opacity="0.244"/></g><path d="M 0 112.6 C 90.0 116.3, 180.0 118.2, 270.0 114.3 C 270.0 114.3, 360.0 114.0, 450.0 114.4 C 450.0 114.4, 540.0 110.8, 630.0 98.4 C 630.0 98.4, 720.0 96.7, 810.0 103.0 C 810.0 103.0, 900.0 96.7, 990.0 105.6 C 990.0 105.6, 1080.0 106.9, 1170.0 114.5 C 1170.0 114.5, 1260.0 119.8, 1350.0 117.8 C 1350.0 117.8, 1440.0 114.3, 1530.0 109.9" stroke="#f8fffe" stroke-opacity="0.220" stroke-width="1.55" fill="none" stroke-linecap="round" stroke-linejoin="round"/><path d="M 0 160.0 C 90.0 164.4, 180.0 164.1, 270.0 163.5 C 270.0 163.5, 360.0 160.3, 450.0 152.1 C 450.0 152.1, 540.0 145.7, 630.0 145.3 C 630.0 145.3, 720.0 139.0, 810.0 145.3 C 810.0 145.3, 900.0 151.4, 990.0 157.2 C 990.0 157.2, 1080.0 157.0, 1170.0 162.7 C 1170.0 162.7, 1260.0 169.2, 1350.0 161.9 C 1350.0 161.9, 1440.0 164.2, 1530.0 150.7" stroke="#e7fff9" stroke-opacity="0.207" stroke-width="1.55" fill="none" stroke-linecap="round" stroke-linejoin="round"/><path d="M 0 217.6 C 90.0 212.3, 180.0 217.7, 270.0 215.0 C 270.0 215.0, 360.0 206.1, 450.0 200.2 C 450.0 200.2, 540.0 197.7, 630.0 196.0 C 630.0 196.0, 720.0 188.9, 810.0 196.7 C 810.0 196.7, 900.0 198.2, 990.0 208.3 C 990.0 208.3, 1080.0 211.2, 1170.0 213.6 C 1170.0 213.6, 1260.0 216.9, 1350.0 207.0 C 1350.0 207.0, 1440.0 201.2, 1530.0 193.1" stroke="#d0fff5" stroke-opacity="0.194" stroke-width="1.55" fill="none" stroke-linecap="round" stroke-linejoin="round"/><path d="M 0 281.8 C 90.0 275.7, 180.0 269.8, 270.0 268.2 C 270.0 268.2, 360.0 261.4, 450.0 254.0 C 450.0 254.0, 540.0 249.7, 630.0 250.2 C 630.0 250.2, 720.0 256.6, 810.0 259.6 C 810.0 259.6, 900.0 272.7, 990.0 277.6 C 990.0 277.6, 1080.0 282.4, 1170.0 281.8 C 1170.0 281.8, 1260.0 276.6, 1350.0 266.2 C 1350.0 266.2, 1440.0 258.4, 1530.0 254.4" stroke="#b4f6ea" stroke-opacity="0.181" stroke-width="1.55" fill="none" stroke-linecap="round" stroke-linejoin="round"/><path d="M 0 353.3 C 90.0 343.6, 180.0 344.9, 270.0 328.8 C 270.0 328.8, 360.0 323.9, 450.0 319.1 C 450.0 319.1, 540.0 315.5, 630.0 324.9 C 630.0 324.9, 720.0 332.7, 810.0 343.9 C 810.0 343.9, 900.0 349.4, 990.0 350.6 C 990.0 350.6, 1080.0 352.9, 1170.0 352.1 C 1170.0 352.1, 1260.0 341.0, 1350.0 334.1 C 1350.0 334.1, 1440.0 318.4, 1530.0 321.2" stroke="#9aeadb" stroke-opacity="0.168" stroke-width="1.28" fill="none" stroke-linecap="round" stroke-linejoin="round"/><path d="M 0 433.9 C 90.0 425.4, 180.0 417.1, 270.0 406.6 C 270.0 406.6, 360.0 400.0, 450.0 400.4 C 450.0 400.4, 540.0 404.9, 630.0 413.4 C 630.0 413.4, 720.0 428.8, 810.0 430.5 C 810.0 430.5, 900.0 437.1, 990.0 436.1 C 990.0 436.1, 1080.0 436.0, 1170.0 424.8 C 1170.0 424.8, 1260.0 417.8, 1350.0 406.2 C 1350.0 406.2, 1440.0 400.7, 1530.0 403.5" stroke="#82decf" stroke-opacity="0.155" stroke-width="1.28" fill="none" stroke-linecap="round" stroke-linejoin="round"/><path d="M 0 530.7 C 90.0 528.0, 180.0 514.5, 270.0 505.8 C 270.0 505.8, 360.0 505.6, 450.0 513.6 C 450.0 513.6, 540.0 517.6, 630.0 527.5 C 630.0 527.5, 720.0 535.9, 810.0 544.2 C 810.0 544.2, 900.0 549.5, 990.0 543.6 C 990.0 543.6, 1080.0 531.4, 1170.0 526.7 C 1170.0 526.7, 1260.0 509.0, 1350.0 504.9 C 1350.0 504.9, 1440.0 508.1, 1530.0 514.1" stroke="#6cd2c4" stroke-opacity="0.100" stroke-width="1.28" fill="none" stroke-linecap="round" stroke-linejoin="round"/><path d="M 0 641.4 C 90.0 625.3, 180.0 622.5, 270.0 618.3 C 270.0 618.3, 360.0 617.7, 450.0 629.7 C 450.0 629.7, 540.0 646.8, 630.0 649.8 C 630.0 649.8, 720.0 659.3, 810.0 661.6 C 810.0 661.6, 900.0 664.1, 990.0 650.1 C 990.0 650.1, 1080.0 642.0, 1170.0 630.6 C 1170.0 630.6, 1260.0 616.3, 1350.0 618.5 C 1350.0 618.5, 1440.0 619.5, 1530.0 635.7" stroke="#61c7bd" stroke-opacity="0.100" stroke-width="1.28" fill="none" stroke-linecap="round" stroke-linejoin="round"/><path d="M 0 750.8 C 90.0 739.8, 180.0 740.2, 270.0 743.0 C 270.0 743.0, 360.0 744.3, 450.0 757.0 C 450.0 757.0, 540.0 772.1, 630.0 781.5 C 630.0 781.5, 720.0 786.4, 810.0 783.1 C 810.0 783.1, 900.0 779.4, 990.0 763.7 C 990.0 763.7, 1080.0 754.0, 1170.0 741.4 C 1170.0 741.4, 1260.0 734.3, 1350.0 741.3 C 1350.0 741.3, 1440.0 746.7, 1530.0 763.7" stroke="#59beb6" stroke-opacity="0.100" stroke-width="1.28" fill="none" stroke-linecap="round" stroke-linejoin="round"/><g stroke="#e6fffb" stroke-opacity=".08" stroke-width="0.9" stroke-linejoin="round"><polygon points="0,676 165,668 165,825 0,830" fill="#c2f1e3" opacity="0.400"/><polygon points="165,668 299,680 299,820 165,834" fill="#bbebe8" opacity="0.400"/><polygon points="299,680 463,668 463,808 299,823" fill="#b8f6ef" opacity="0.400"/><polygon points="463,668 654,706 654,833 463,837" fill="#c7feed" opacity="0.400"/><polygon points="654,706 757,667 757,833 654,825" fill="#c5f3ee" opacity="0.400"/><polygon points="757,667 847,664 847,808 757,837" fill="#c0f5e7" opacity="0.400"/><polygon points="847,664 976,700 976,817 847,837" fill="#b7edef" opacity="0.400"/><polygon points="976,700 1133,683 1133,831 976,826" fill="#befcde" opacity="0.400"/><polygon points="1133,683 1321,680 1321,836 1133,813" fill="#b9ebf1" opacity="0.400"/><polygon points="1321,680 1484,668 1484,812 1321,821" fill="#c0f8f0" opacity="0.400"/><polygon points="1484,668 1600,685 1600,833 1484,811" fill="#b4ecf2" opacity="0.400"/><polygon points="0,780 99,737 99,865 0,867" fill="#a3edda" opacity="0.340"/><polygon points="99,737 234,736 234,885 99,865" fill="#b3eadd" opacity="0.340"/><polygon points="234,736 397,761 397,859 234,883" fill="#b0f3e4" opacity="0.340"/><polygon points="397,761 526,780 526,852 397,862" fill="#a4e8e7" opacity="0.340"/><polygon points="526,780 650,740 650,855 526,880" fill="#aae9e0" opacity="0.340"/><polygon points="650,740 824,757 824,874 650,875" fill="#a0e8df" opacity="0.340"/><polygon points="824,757 944,769 944,876 824,873" fill="#b4e5dc" opacity="0.340"/><polygon points="944,769 1117,751 1117,867 944,868" fill="#a2ead7" opacity="0.340"/><polygon points="1117,751 1253,735 1253,865 1117,854" fill="#a1f3d7" opacity="0.340"/><polygon points="1253,735 1395,745 1395,874 1253,857" fill="#aaf0e3" opacity="0.340"/><polygon points="1395,745 1523,778 1523,882 1395,882" fill="#a5f1d5" opacity="0.340"/><polygon points="1523,778 1600,732 1600,853 1523,860" fill="#a9f0da" opacity="0.340"/><polygon points="0,820 113,799 113,900 0,900" fill="#c4fff7" opacity="0.280"/><polygon points="113,799 275,828 275,888 113,893" fill="#b6f3f5" opacity="0.280"/><polygon points="275,828 396,822 396,900 275,900" fill="#caf2e5" opacity="0.280"/><polygon points="396,822 495,841 495,900 396,900" fill="#c3ffed" opacity="0.280"/><polygon points="495,841 674,842 674,899 495,900" fill="#c4fae8" opacity="0.280"/><polygon points="674,842 767,841 767,900 674,900" fill="#bbffed" opacity="0.280"/><polygon points="767,841 903,822 903,895 767,900" fill="#c1f9ef" opacity="0.280"/><polygon points="903,822 1019,826 1019,883 903,900" fill="#bcffed" opacity="0.280"/><polygon points="1019,826 1157,798 1157,900 1019,900" fill="#c4fdf5" opacity="0.280"/><polygon points="1157,798 1323,844 1323,900 1157,900" fill="#b8ffe5" opacity="0.280"/><polygon points="1323,844 1500,818 1500,897 1323,886" fill="#bffdf1" opacity="0.280"/><polygon points="1500,818 1594,797 1594,900 1500,900" fill="#befdf0" opacity="0.280"/><polygon points="1594,797 1600,841 1600,900 1594,884" fill="#b8ffe5" opacity="0.280"/></g></svg>